<svg id="Layer_1" data-name="Layer 1" xmlns="http://www.w3.org/2000/svg" viewBox="0 0 620 260.022"><defs><style>.cls-1{isolation:isolate;}.cls-2{fill:#144673;}.cls-3{fill:#638ec6;}.cls-4{fill:#ccc;}.cls-5{fill:#d96b6b;}.cls-6{fill:#b11f28;}.cls-7,.cls-8{fill:none;}.cls-8{stroke:#999;stroke-linecap:round;stroke-miterlimit:10;}.cls-9{fill:#fff;}.cls-10{fill:#999;}</style></defs><g class="cls-1"><path d="M7.346,18.444H5.835V23.43H3.459V10.992H7.167q4.932,0,4.931,3.654a3.314,3.314,0,0,1-.611,2.052,4.245,4.245,0,0,1-1.908,1.314l3.258,5.418H10.1Zm-1.511-1.71H7.31a2.6,2.6,0,0,0,1.72-.5,1.977,1.977,0,0,0,.585-1.593,1.723,1.723,0,0,0-.6-1.467,3.146,3.146,0,0,0-1.9-.459H5.835Z"/><path d="M21.287,14.979a5.385,5.385,0,0,1,1.18,3.681,6.122,6.122,0,0,1-.54,2.637,4.1,4.1,0,0,1-1.548,1.773,4.43,4.43,0,0,1-2.395.63,4.172,4.172,0,0,1-3.294-1.341,5.384,5.384,0,0,1-1.187-3.7,6.033,6.033,0,0,1,.54-2.628A4.089,4.089,0,0,1,15.6,14.268a4.472,4.472,0,0,1,2.4-.63A4.144,4.144,0,0,1,21.287,14.979ZM15.932,18.66a4.73,4.73,0,0,0,.513,2.493,1.705,1.705,0,0,0,1.539.8,1.7,1.7,0,0,0,1.539-.81,4.737,4.737,0,0,0,.513-2.484,4.686,4.686,0,0,0-.513-2.475,1.688,1.688,0,0,0-1.52-.8Q15.932,15.384,15.932,18.66Z"/><path d="M31.017,14.772l-.9,1.35a4.473,4.473,0,0,0-2.394-.774,1.858,1.858,0,0,0-1.062.261.8.8,0,0,0-.378.693.875.875,0,0,0,.162.54,1.475,1.475,0,0,0,.585.405,9.8,9.8,0,0,0,1.251.423,5.49,5.49,0,0,1,2.3,1.1,2.457,2.457,0,0,1,.747,1.908A2.558,2.558,0,0,1,30.171,22.9a4.893,4.893,0,0,1-2.862.8,6.05,6.05,0,0,1-2.133-.36,5.159,5.159,0,0,1-1.665-.99l1.152-1.3a4.249,4.249,0,0,0,2.592.936,2.194,2.194,0,0,0,1.233-.306.964.964,0,0,0,.459-.846,1.13,1.13,0,0,0-.171-.657,1.408,1.408,0,0,0-.612-.432,12.845,12.845,0,0,0-1.377-.459,4.6,4.6,0,0,1-2.142-1.107,2.457,2.457,0,0,1-.684-1.773,2.355,2.355,0,0,1,.459-1.422,3.045,3.045,0,0,1,1.3-.99,4.812,4.812,0,0,1,1.917-.36A5.356,5.356,0,0,1,31.017,14.772Z"/><path d="M38.648,22.98a3.683,3.683,0,0,1-1.125.54,4.534,4.534,0,0,1-1.268.18,2.823,2.823,0,0,1-2.133-.8,3.281,3.281,0,0,1-.73-2.313V15.564H31.9V13.908h1.494V11.8l2.3-.27v2.376H37.91l-.233,1.656H35.7v4.968a1.636,1.636,0,0,0,.243,1.008.919.919,0,0,0,.766.306,2.354,2.354,0,0,0,1.134-.342Z"/><path d="M47.4,19.38H41.421a3.023,3.023,0,0,0,.719,1.98,2.231,2.231,0,0,0,1.621.594,3.392,3.392,0,0,0,1.188-.207,5.54,5.54,0,0,0,1.187-.639l.955,1.314A5.482,5.482,0,0,1,43.562,23.7a4.245,4.245,0,0,1-3.356-1.332,5.29,5.29,0,0,1-1.179-3.636,6.515,6.515,0,0,1,.5-2.619A4.149,4.149,0,0,1,40.989,14.3a4.34,4.34,0,0,1,5.363.612,5.228,5.228,0,0,1,1.1,3.537C47.451,18.564,47.432,18.876,47.4,19.38Zm-2.231-1.6q0-2.5-1.855-2.5a1.573,1.573,0,0,0-1.322.621,3.692,3.692,0,0,0-.567,1.989h3.744Z"/><path d="M61.617,14.952a6.7,6.7,0,0,1,.863,3.69,7.237,7.237,0,0,1-.44,2.619,3.994,3.994,0,0,1-1.3,1.791,3.257,3.257,0,0,1-2.025.648,2.969,2.969,0,0,1-2.394-1.044V27.1l-2.3.252V13.908h2.017l.126,1.17A3.729,3.729,0,0,1,57.44,14a3.345,3.345,0,0,1,1.513-.36A2.966,2.966,0,0,1,61.617,14.952ZM60.068,18.66a5.267,5.267,0,0,0-.449-2.52,1.468,1.468,0,0,0-1.351-.774,1.857,1.857,0,0,0-1.08.351,3.049,3.049,0,0,0-.863.945v4.284a2.019,2.019,0,0,0,1.745.99Q60.068,21.936,60.068,18.66Z"/><path d="M71.921,14.979A5.384,5.384,0,0,1,73.1,18.66a6.107,6.107,0,0,1-.54,2.637,4.094,4.094,0,0,1-1.548,1.773,4.424,4.424,0,0,1-2.394.63,4.172,4.172,0,0,1-3.294-1.341,5.384,5.384,0,0,1-1.188-3.7,6.033,6.033,0,0,1,.541-2.628,4.082,4.082,0,0,1,1.556-1.764,4.471,4.471,0,0,1,2.4-.63A4.144,4.144,0,0,1,71.921,14.979ZM66.566,18.66a4.73,4.73,0,0,0,.513,2.493,1.873,1.873,0,0,0,3.078-.009,4.737,4.737,0,0,0,.513-2.484,4.686,4.686,0,0,0-.513-2.475,1.69,1.69,0,0,0-1.521-.8Q66.566,15.384,66.566,18.66Z"/><path d="M83.271,10.092V23.43H81.237l-.162-1.206a3.327,3.327,0,0,1-1.144,1.08,3.116,3.116,0,0,1-1.574.4,3.066,3.066,0,0,1-2.682-1.35,6.35,6.35,0,0,1-.936-3.672,6.8,6.8,0,0,1,.468-2.6,4.1,4.1,0,0,1,1.341-1.791,3.384,3.384,0,0,1,4.419.378V9.84ZM80.085,21.657a3.086,3.086,0,0,0,.882-.927V16.374a3.338,3.338,0,0,0-.837-.756,1.885,1.885,0,0,0-.981-.252,1.645,1.645,0,0,0-1.449.819,4.6,4.6,0,0,0-.531,2.475,5.094,5.094,0,0,0,.467,2.529,1.511,1.511,0,0,0,1.369.765A1.974,1.974,0,0,0,80.085,21.657Z"/><path d="M88.905,8.67l.936,1.8-4.068,1.62-.648-1.17Zm-.216,5.238V23.43h-2.3V13.908Z"/><path d="M92.225,23.061a2.489,2.489,0,0,1-.621-1.809V10.092l2.3-.252V21.18c0,.445.181.666.54.666a1.694,1.694,0,0,0,.54-.09l.486,1.62a3.686,3.686,0,0,1-1.53.324A2.287,2.287,0,0,1,92.225,23.061Z"/><path d="M106.958,22.98a3.683,3.683,0,0,1-1.125.54,4.536,4.536,0,0,1-1.269.18,2.826,2.826,0,0,1-2.133-.8,3.281,3.281,0,0,1-.729-2.313V15.564h-1.494V13.908H101.7V11.8l2.3-.27v2.376h2.213l-.233,1.656h-1.98v4.968a1.636,1.636,0,0,0,.243,1.008.918.918,0,0,0,.765.306,2.351,2.351,0,0,0,1.134-.342Z"/><path d="M115.706,19.38H109.73a3.029,3.029,0,0,0,.72,1.98,2.227,2.227,0,0,0,1.62.594,3.4,3.4,0,0,0,1.189-.207,5.563,5.563,0,0,0,1.187-.639l.954,1.314a5.479,5.479,0,0,1-3.528,1.278,4.248,4.248,0,0,1-3.357-1.332,5.29,5.29,0,0,1-1.178-3.636,6.515,6.515,0,0,1,.5-2.619A4.149,4.149,0,0,1,109.3,14.3a4.34,4.34,0,0,1,5.363.612,5.234,5.234,0,0,1,1.1,3.537C115.761,18.564,115.742,18.876,115.706,19.38ZM113.961,9.03l.882,1.008-2.5,2.25H110.9l-2.5-2.25.882-1.008,2.34,1.584Zm-.487,8.748q0-2.5-1.854-2.5a1.571,1.571,0,0,0-1.322.621,3.692,3.692,0,0,0-.568,1.989h3.744Z"/><path d="M123.347,13.908a4.52,4.52,0,0,1,1.414.846l-1.027,1.386a3.7,3.7,0,0,0-.936-.522,2.9,2.9,0,0,0-.99-.162q-2.142,0-2.142,3.258a3.975,3.975,0,0,0,.558,2.385,1.876,1.876,0,0,0,1.584.729,2.571,2.571,0,0,0,.927-.162,6.023,6.023,0,0,0,1-.522l1.027,1.458a4.748,4.748,0,0,1-3.079,1.1,4.541,4.541,0,0,1-2.376-.6,3.944,3.944,0,0,1-1.547-1.719,5.96,5.96,0,0,1-.54-2.628,6.258,6.258,0,0,1,.54-2.673,4.131,4.131,0,0,1,1.547-1.8,4.318,4.318,0,0,1,2.358-.639A4.927,4.927,0,0,1,123.347,13.908Z"/><path d="M133.49,14.412a3,3,0,0,1,.72,2.124V23.43h-2.3V16.9a1.828,1.828,0,0,0-.3-1.188,1.09,1.09,0,0,0-.872-.342,1.716,1.716,0,0,0-1.062.369,4.189,4.189,0,0,0-.936,1.053V23.43h-2.3V10.11l2.3-.234v5.166a3.476,3.476,0,0,1,2.772-1.4A2.573,2.573,0,0,1,133.49,14.412Z"/><path d="M138.7,21.2a1.4,1.4,0,0,1,.423,1.044,2.4,2.4,0,0,1-.109.7,7.5,7.5,0,0,1-.359.918l-1.17,2.664h-1.4l.738-3.1a1.365,1.365,0,0,1-.612-1.206,1.414,1.414,0,0,1,1.439-1.44A1.448,1.448,0,0,1,138.7,21.2Z"/><path d="M148.016,9.84V23.43h-2.3V10.092Zm5.706,4.068L150.553,18.1l3.475,5.328h-2.646l-3.276-5.2,3.186-4.32Z"/><path d="M160.777,22.98a3.683,3.683,0,0,1-1.125.54,4.534,4.534,0,0,1-1.268.18,2.823,2.823,0,0,1-2.133-.8,3.277,3.277,0,0,1-.73-2.313V15.564h-1.494V13.908h1.494V11.8l2.3-.27v2.376h2.214l-.234,1.656h-1.98v4.968a1.636,1.636,0,0,0,.243,1.008.919.919,0,0,0,.766.306,2.357,2.357,0,0,0,1.134-.342Z"/><path d="M169.525,19.38H163.55a3.023,3.023,0,0,0,.719,1.98,2.23,2.23,0,0,0,1.62.594,3.394,3.394,0,0,0,1.189-.207,5.563,5.563,0,0,0,1.187-.639l.954,1.314a5.477,5.477,0,0,1-3.528,1.278,4.245,4.245,0,0,1-3.356-1.332,5.29,5.29,0,0,1-1.179-3.636,6.515,6.515,0,0,1,.5-2.619,4.149,4.149,0,0,1,1.458-1.818,4.34,4.34,0,0,1,5.363.612,5.228,5.228,0,0,1,1.1,3.537C169.58,18.564,169.561,18.876,169.525,19.38Zm-2.231-1.6q0-2.5-1.855-2.5a1.573,1.573,0,0,0-1.322.621,3.692,3.692,0,0,0-.567,1.989h3.744Z"/><path d="M176.851,9.03l.882,1.008-2.5,2.25h-1.439l-2.5-2.25.882-1.008,2.339,1.584Zm.451,4.752-.4,2.232a3.474,3.474,0,0,0-.846-.108,1.619,1.619,0,0,0-1.332.6,4.622,4.622,0,0,0-.773,1.845V23.43h-2.305V13.908h2l.216,1.872a3.44,3.44,0,0,1,.99-1.575,2.245,2.245,0,0,1,1.494-.549A3.412,3.412,0,0,1,177.3,13.782Z"/><path d="M181.261,8.67l.936,1.8-4.067,1.62-.649-1.17Zm-.215,5.238V23.43h-2.3V13.908Z"/><path d="M195.968,13.908l-3.1,9.522h-2.755l-3.149-9.522h2.5l2.035,7.668,2.088-7.668Z"/><path d="M199.577,9.489a1.36,1.36,0,0,1,.4,1,1.331,1.331,0,0,1-.4.99,1.445,1.445,0,0,1-1.054.4,1.416,1.416,0,0,1-1.034-.4,1.328,1.328,0,0,1-.405-.99,1.357,1.357,0,0,1,.405-1,1.4,1.4,0,0,1,1.034-.405A1.427,1.427,0,0,1,199.577,9.489Zm.117,4.419V23.43h-2.3V13.908Z"/><path d="M210.475,10.092V23.43h-2.034l-.162-1.206a3.333,3.333,0,0,1-1.143,1.08,3.12,3.12,0,0,1-1.575.4,3.066,3.066,0,0,1-2.682-1.35,6.35,6.35,0,0,1-.936-3.672,6.8,6.8,0,0,1,.468-2.6,4.1,4.1,0,0,1,1.341-1.791,3.384,3.384,0,0,1,4.419.378V9.84Zm-3.186,11.565a3.086,3.086,0,0,0,.882-.927V16.374a3.338,3.338,0,0,0-.837-.756,1.883,1.883,0,0,0-.981-.252,1.646,1.646,0,0,0-1.449.819,4.612,4.612,0,0,0-.531,2.475,5.08,5.08,0,0,0,.468,2.529,1.508,1.508,0,0,0,1.368.765A1.974,1.974,0,0,0,207.289,21.657Z"/><path d="M216.109,8.67l.936,1.8-4.068,1.62-.648-1.17Zm-.216,5.238V23.43h-2.3V13.908Z"/><path d="M230.761,14.952a6.687,6.687,0,0,1,.864,3.69,7.236,7.236,0,0,1-.441,2.619,3.987,3.987,0,0,1-1.3,1.791,3.257,3.257,0,0,1-2.025.648,2.969,2.969,0,0,1-2.394-1.044V27.1l-2.3.252V13.908h2.016l.126,1.17A3.723,3.723,0,0,1,226.585,14a3.338,3.338,0,0,1,1.512-.36A2.965,2.965,0,0,1,230.761,14.952Zm-1.548,3.708a5.265,5.265,0,0,0-.45-2.52,1.466,1.466,0,0,0-1.35-.774,1.855,1.855,0,0,0-1.08.351,3.064,3.064,0,0,0-.864.945v4.284a2.022,2.022,0,0,0,1.746.99Q229.213,21.936,229.213,18.66Z"/><path d="M239.546,13.782l-.4,2.232a3.474,3.474,0,0,0-.846-.108,1.619,1.619,0,0,0-1.332.6,4.622,4.622,0,0,0-.773,1.845V23.43h-2.305V13.908h2l.216,1.872a3.44,3.44,0,0,1,.99-1.575,2.246,2.246,0,0,1,1.5-.549A3.4,3.4,0,0,1,239.546,13.782Z"/><path d="M247.618,14.979a5.385,5.385,0,0,1,1.18,3.681,6.122,6.122,0,0,1-.54,2.637,4.1,4.1,0,0,1-1.548,1.773,4.43,4.43,0,0,1-2.4.63,4.172,4.172,0,0,1-3.294-1.341,5.384,5.384,0,0,1-1.187-3.7,6.033,6.033,0,0,1,.54-2.628,4.089,4.089,0,0,1,1.556-1.764,4.472,4.472,0,0,1,2.4-.63A4.144,4.144,0,0,1,247.618,14.979Zm-5.355,3.681a4.73,4.73,0,0,0,.513,2.493,1.873,1.873,0,0,0,3.078-.009,4.737,4.737,0,0,0,.513-2.484,4.686,4.686,0,0,0-.513-2.475,1.688,1.688,0,0,0-1.52-.8Q242.263,15.384,242.263,18.66Z"/><path d="M253.243,22.584a5.578,5.578,0,0,1-.405,2.3A3.558,3.558,0,0,1,251.7,26.31a9.151,9.151,0,0,1-1.926,1.026l-.738-1.674a5.479,5.479,0,0,0,1.1-.639,1.959,1.959,0,0,0,.6-.855,4.112,4.112,0,0,0,.207-1.44v-8.82h2.3Zm-.117-13.095a1.357,1.357,0,0,1,.405,1,1.328,1.328,0,0,1-.405.99,1.442,1.442,0,0,1-1.053.4,1.419,1.419,0,0,1-1.035-.4,1.328,1.328,0,0,1-.405-.99,1.357,1.357,0,0,1,.405-1,1.4,1.4,0,0,1,1.035-.405A1.424,1.424,0,0,1,253.126,9.489Z"/><path d="M263.772,19.38H257.8a3.023,3.023,0,0,0,.719,1.98,2.23,2.23,0,0,0,1.62.594,3.394,3.394,0,0,0,1.189-.207,5.54,5.54,0,0,0,1.187-.639l.955,1.314a5.482,5.482,0,0,1-3.529,1.278,4.245,4.245,0,0,1-3.356-1.332,5.29,5.29,0,0,1-1.179-3.636,6.515,6.515,0,0,1,.5-2.619,4.149,4.149,0,0,1,1.458-1.818,4.34,4.34,0,0,1,5.363.612,5.228,5.228,0,0,1,1.1,3.537C263.827,18.564,263.808,18.876,263.772,19.38Zm-2.231-1.6q0-2.5-1.855-2.5a1.573,1.573,0,0,0-1.322.621,3.692,3.692,0,0,0-.567,1.989h3.744Z"/><path d="M273.439,13.908l-3.1,9.522h-2.755l-3.15-9.522h2.5l2.034,7.668,2.088-7.668Z"/><path d="M279.469,23.466a5.844,5.844,0,0,1-1.747,2.745,5.547,5.547,0,0,1-3.2,1.143l-.234-1.674a5.78,5.78,0,0,0,1.5-.405,2.418,2.418,0,0,0,.908-.693,4.57,4.57,0,0,0,.63-1.152h-.792l-3.023-9.522h2.448l2.069,7.992,2.16-7.992h2.376Z"/><path d="M294.661,13.908v1.656l-4.608,6.066h4.7l-.235,1.8h-7.109V21.774l4.626-6.066H287.8v-1.8Z"/><path d="M308.485,14.421a3.1,3.1,0,0,1,.684,2.115V23.43h-2.3V16.9q0-1.53-1.044-1.53a1.422,1.422,0,0,0-.963.351,4.342,4.342,0,0,0-.837,1.089V23.43h-2.3V16.9q0-1.53-1.044-1.53a1.447,1.447,0,0,0-.981.351,4.342,4.342,0,0,0-.837,1.089V23.43h-2.3V13.908h2l.18,1.242a3.262,3.262,0,0,1,2.754-1.512,2.43,2.43,0,0,1,1.431.423,2.367,2.367,0,0,1,.873,1.179,4.451,4.451,0,0,1,1.268-1.188,3.049,3.049,0,0,1,1.594-.414A2.315,2.315,0,0,1,308.485,14.421Z"/><path d="M319.608,19.38h-5.975a3.023,3.023,0,0,0,.719,1.98,2.23,2.23,0,0,0,1.62.594,3.394,3.394,0,0,0,1.189-.207,5.563,5.563,0,0,0,1.187-.639l.955,1.314a5.482,5.482,0,0,1-3.529,1.278,4.245,4.245,0,0,1-3.356-1.332,5.29,5.29,0,0,1-1.179-3.636,6.515,6.515,0,0,1,.5-2.619A4.149,4.149,0,0,1,313.2,14.3a4.34,4.34,0,0,1,5.363.612,5.228,5.228,0,0,1,1.1,3.537C319.663,18.564,319.644,18.876,319.608,19.38ZM317.863,9.03l.882,1.008-2.5,2.25H314.8l-2.5-2.25.881-1.008,2.34,1.584Zm-.486,8.748q0-2.5-1.855-2.5a1.573,1.573,0,0,0-1.322.621,3.692,3.692,0,0,0-.567,1.989h3.744Z"/><path d="M328.8,14.4a3.021,3.021,0,0,1,.711,2.133V23.43h-2.3V16.9a1.828,1.828,0,0,0-.3-1.188,1.09,1.09,0,0,0-.872-.342,1.7,1.7,0,0,0-1.071.369,4.191,4.191,0,0,0-.927,1.071V23.43h-2.3V13.908h2l.181,1.242a3.536,3.536,0,0,1,2.9-1.512A2.585,2.585,0,0,1,328.8,14.4Z"/><path d="M336.69,23.466a5.851,5.851,0,0,1-1.746,2.745,5.55,5.55,0,0,1-3.2,1.143l-.234-1.674a5.78,5.78,0,0,0,1.5-.405,2.434,2.434,0,0,0,.908-.693,4.634,4.634,0,0,0,.63-1.152h-.792l-3.024-9.522h2.448l2.07,7.992,2.16-7.992h2.376Z"/><path d="M348,9.84V23.43H345.69V10.092Zm5.706,4.068L350.532,18.1l3.475,5.328H351.36l-3.275-5.2,3.185-4.32Z"/><path d="M355.833,23.061a2.489,2.489,0,0,1-.621-1.809V10.092l2.3-.252V21.18c0,.445.181.666.54.666a1.69,1.69,0,0,0,.54-.09l.487,1.62a3.689,3.689,0,0,1-1.53.324A2.286,2.286,0,0,1,355.833,23.061Z"/><path d="M362.8,9.489a1.36,1.36,0,0,1,.4,1,1.331,1.331,0,0,1-.4.99,1.446,1.446,0,0,1-1.054.4,1.415,1.415,0,0,1-1.034-.4,1.325,1.325,0,0,1-.406-.99,1.354,1.354,0,0,1,.406-1,1.4,1.4,0,0,1,1.034-.405A1.428,1.428,0,0,1,362.8,9.489Zm.117,4.419V23.43h-2.3V13.908Z"/><path d="M377.623,14.421a3.1,3.1,0,0,1,.683,2.115V23.43H376V16.9q0-1.53-1.044-1.53a1.42,1.42,0,0,0-.963.351,4.319,4.319,0,0,0-.837,1.089V23.43h-2.305V16.9q0-1.53-1.044-1.53a1.444,1.444,0,0,0-.98.351,4.319,4.319,0,0,0-.837,1.089V23.43h-2.305V13.908h2l.181,1.242a3.262,3.262,0,0,1,2.754-1.512,2.43,2.43,0,0,1,1.431.423,2.367,2.367,0,0,1,.873,1.179,4.426,4.426,0,0,1,1.268-1.188,3.047,3.047,0,0,1,1.594-.414A2.316,2.316,0,0,1,377.623,14.421Z"/><path d="M388.2,21.729a1.094,1.094,0,0,0,.549.405l-.485,1.53a2.944,2.944,0,0,1-1.324-.4,2.03,2.03,0,0,1-.783-.99,3.045,3.045,0,0,1-1.215,1.071,3.707,3.707,0,0,1-1.629.351,3.079,3.079,0,0,1-2.25-.81,2.842,2.842,0,0,1-.828-2.124,2.748,2.748,0,0,1,1.125-2.367,5.4,5.4,0,0,1,3.213-.819h1.189v-.54a1.647,1.647,0,0,0-.423-1.287,2.049,2.049,0,0,0-1.36-.369,8.033,8.033,0,0,0-2.52.5l-.539-1.566a9.613,9.613,0,0,1,3.455-.684q3.654,0,3.654,3.276v4A1.528,1.528,0,0,0,388.2,21.729Zm-2.438-.873V18.93H384.8q-2.232,0-2.232,1.656a1.527,1.527,0,0,0,.342,1.062,1.291,1.291,0,0,0,1.009.378A2.04,2.04,0,0,0,385.759,20.856Z"/><path d="M396.269,22.98a3.683,3.683,0,0,1-1.125.54,4.534,4.534,0,0,1-1.268.18,2.823,2.823,0,0,1-2.133-.8,3.281,3.281,0,0,1-.73-2.313V15.564h-1.494V13.908h1.494V11.8l2.3-.27v2.376h2.214l-.233,1.656h-1.981v4.968a1.636,1.636,0,0,0,.243,1.008.919.919,0,0,0,.766.306,2.351,2.351,0,0,0,1.134-.342Z"/><path d="M405.179,23.43h-2l-.126-1.332a3.5,3.5,0,0,1-1.233,1.206,3.4,3.4,0,0,1-1.683.4,2.491,2.491,0,0,1-1.97-.783,3.16,3.16,0,0,1-.694-2.169v-6.84h2.3V20.46a1.843,1.843,0,0,0,.279,1.152,1.085,1.085,0,0,0,.891.342,2.328,2.328,0,0,0,1.927-1.35v-6.7h2.3Z"/></g><path d="M9.381,40a3.953,3.953,0,0,1,1.469,1.808,8.184,8.184,0,0,1,.008,5.752A4.01,4.01,0,0,1,9.4,49.378,3.941,3.941,0,0,1,7.176,50a3.922,3.922,0,0,1-2.19-.615,4.021,4.021,0,0,1-1.471-1.8,8.094,8.094,0,0,1,0-5.73,4.1,4.1,0,0,1,1.478-1.83A3.864,3.864,0,0,1,7.176,39.4,3.99,3.99,0,0,1,9.381,40Zm-4.576,1.3a5.6,5.6,0,0,0-.87,3.412A5.472,5.472,0,0,0,4.813,48.1a2.826,2.826,0,0,0,2.363,1.14,2.833,2.833,0,0,0,2.4-1.132,5.612,5.612,0,0,0,.854-3.4,5.6,5.6,0,0,0-.862-3.413,2.837,2.837,0,0,0-2.392-1.132A2.818,2.818,0,0,0,4.805,41.308Z"/><path d="M19.551,38.8v11.04H18.8l-.1-1.2A2.584,2.584,0,0,1,16.341,50a2.516,2.516,0,0,1-2.153-1.087,4.964,4.964,0,0,1-.787-2.962,5.808,5.808,0,0,1,.367-2.145,3.277,3.277,0,0,1,1.066-1.455,2.647,2.647,0,0,1,1.642-.525,2.727,2.727,0,0,1,2.205,1.065v-4.2ZM17.744,48.92a3.283,3.283,0,0,0,.937-1.094v-4.1a2.463,2.463,0,0,0-2.055-1.185,1.958,1.958,0,0,0-1.688.886,4.24,4.24,0,0,0-.607,2.505,4.5,4.5,0,0,0,.57,2.482,1.789,1.789,0,0,0,1.575.862A2.161,2.161,0,0,0,17.744,48.92Z"/><path d="M30.74,41.916l-.165.824a2.653,2.653,0,0,0-.69-.09,1.6,1.6,0,0,0-1.283.578,4.743,4.743,0,0,0-.817,1.808v4.8h-.87V41.99h.75l.075,1.756A3.139,3.139,0,0,1,28.6,42.3a2.007,2.007,0,0,1,1.358-.472A2.843,2.843,0,0,1,30.74,41.916Z"/><path d="M37.2,42.9a4.6,4.6,0,0,1,.878,2.993,4.645,4.645,0,0,1-.893,3.007,3.261,3.261,0,0,1-4.875.015,4.639,4.639,0,0,1-.878-2.993,5.389,5.389,0,0,1,.406-2.174,3.018,3.018,0,0,1,2.925-1.92A2.974,2.974,0,0,1,37.2,42.9Zm-4.208.518a4.184,4.184,0,0,0-.63,2.5,4.2,4.2,0,0,0,.623,2.491,2.054,2.054,0,0,0,1.763.855,2.094,2.094,0,0,0,1.777-.855,4.185,4.185,0,0,0,.638-2.52,4.163,4.163,0,0,0-.623-2.483,2.275,2.275,0,0,0-3.548.008Z"/><path d="M41.5,38.69V49.835h-.87V38.8Zm4.4,3.3-3.3,3.51,3.645,4.335h-1.05l-3.6-4.29,3.3-3.555Z"/><path d="M53.36,49.835h-.75l-.045-1.4A2.86,2.86,0,0,1,50,50a2.129,2.129,0,0,1-1.643-.622A2.513,2.513,0,0,1,47.78,47.6V41.99h.87v5.52a1.974,1.974,0,0,0,.383,1.343,1.481,1.481,0,0,0,1.162.427,2.679,2.679,0,0,0,2.3-1.605V41.99h.87Z"/><path d="M64.512,40.431a2.541,2.541,0,0,1,.743,1.889,4.2,4.2,0,0,1-.406,1.83,8.837,8.837,0,0,1-1.267,1.875Q62.72,47.047,60.8,49.07h4.724l-.12.765H59.779V49.1q2.055-2.19,2.948-3.248a9.019,9.019,0,0,0,1.26-1.83,3.808,3.808,0,0,0,.367-1.658,1.918,1.918,0,0,0-.517-1.409,1.836,1.836,0,0,0-1.372-.525,2.55,2.55,0,0,0-1.223.284,3.529,3.529,0,0,0-1.013.855l-.6-.449a3.939,3.939,0,0,1,1.3-1.08A3.517,3.517,0,0,1,62.51,39.7,2.718,2.718,0,0,1,64.512,40.431Z"/><path d="M72.785,41.008a7.525,7.525,0,0,1,.8,3.847,7.429,7.429,0,0,1-.8,3.833,2.736,2.736,0,0,1-4.672,0,7.524,7.524,0,0,1-.8-3.848,7.484,7.484,0,0,1,.8-3.84,2.746,2.746,0,0,1,4.68.008ZM68.21,44.84q0,4.441,2.235,4.44A1.784,1.784,0,0,0,72.1,48.2a7.568,7.568,0,0,0,.563-3.346A7.615,7.615,0,0,0,72.1,41.5a1.783,1.783,0,0,0-1.657-1.087Q68.21,40.416,68.21,44.84Z"/><path d="M78.529,39.86v9.975h-.87V40.82L75.2,42.351l-.405-.645,2.985-1.846Z"/><path d="M86.42,40.581H82.37v3.4a3.444,3.444,0,0,1,1.71-.464,2.631,2.631,0,0,1,2.047.832,3.25,3.25,0,0,1,.758,2.272,3.766,3.766,0,0,1-.4,1.748,2.91,2.91,0,0,1-1.125,1.2A3.269,3.269,0,0,1,83.675,50a3.763,3.763,0,0,1-2.821-1.2l.54-.525a3.166,3.166,0,0,0,1.021.75,3.056,3.056,0,0,0,1.26.241,2.1,2.1,0,0,0,1.679-.713,2.873,2.873,0,0,0,.615-1.943,2.519,2.519,0,0,0-.562-1.792,2,2,0,0,0-1.522-.592,2.9,2.9,0,0,0-.848.112,4.175,4.175,0,0,0-.818.368h-.69V39.86h5.025Z"/><path d="M98.66,41.99l-2.715,7.845h-1.08L92.059,41.99h.96l2.386,7.08,2.324-7.08Z"/><path d="M102.979,49.865a7.038,7.038,0,0,1-.689,1.5,3.153,3.153,0,0,1-.976.968,4.409,4.409,0,0,1-1.545.563l-.09-.676a4.146,4.146,0,0,0,1.223-.48,2.228,2.228,0,0,0,.7-.712,6.39,6.39,0,0,0,.532-1.193h-.3L99.109,41.99h.945l2.371,7.2,2.325-7.2h.915Zm.54-11.76.391.78-2.926,1.276-.284-.511Z"/><path d="M111.319,41.916l-.165.824a2.653,2.653,0,0,0-.69-.09,1.6,1.6,0,0,0-1.283.578,4.743,4.743,0,0,0-.817,1.808v4.8h-.87V41.99h.75l.075,1.756a3.139,3.139,0,0,1,.862-1.448,2.007,2.007,0,0,1,1.358-.472A2.843,2.843,0,0,1,111.319,41.916Z"/><path d="M117.6,48.98a.961.961,0,0,0,.5.405l-.2.615a1.54,1.54,0,0,1-.832-.405,1.617,1.617,0,0,1-.383-.914A2.678,2.678,0,0,1,114.244,50a2.433,2.433,0,0,1-1.777-.637,2.271,2.271,0,0,1-.653-1.7,2.22,2.22,0,0,1,.863-1.875,3.855,3.855,0,0,1,2.392-.661h1.5V44.36a1.542,1.542,0,0,0-1.814-1.8,6.344,6.344,0,0,0-2.13.449l-.226-.659a6.7,6.7,0,0,1,2.476-.525,2.234,2.234,0,0,1,2.564,2.489V48.1A1.86,1.86,0,0,0,117.6,48.98Zm-1.027-1.064V45.755h-1.364a3.056,3.056,0,0,0-1.83.465,1.625,1.625,0,0,0-.631,1.4,1.685,1.685,0,0,0,.435,1.245,1.644,1.644,0,0,0,1.215.435A2.383,2.383,0,0,0,116.569,47.916Z"/><path d="M124.834,41.99v.676l-4.38,6.419H124.8l-.089.75h-5.281v-.674l4.38-6.421h-4.019v-.75Z"/><path d="M132.026,42.456a2.565,2.565,0,0,1,.563,1.77v5.609h-.87v-5.49a2.088,2.088,0,0,0-.375-1.38,1.388,1.388,0,0,0-1.111-.435,2.225,2.225,0,0,0-1.327.413,4.531,4.531,0,0,0-1.1,1.207v5.685h-.87V41.99h.75l.09,1.336a3.667,3.667,0,0,1,1.141-1.1,2.816,2.816,0,0,1,1.484-.4A2.069,2.069,0,0,1,132.026,42.456Z"/><path d="M141.229,46.25h-5.235a3.658,3.658,0,0,0,.727,2.273,2.179,2.179,0,0,0,1.718.743,2.935,2.935,0,0,0,1.088-.188,4.771,4.771,0,0,0,1.027-.593l.406.556a4.449,4.449,0,0,1-1.2.719,3.735,3.735,0,0,1-1.366.24,3.006,3.006,0,0,1-2.445-1.064,4.494,4.494,0,0,1-.885-2.956,5.746,5.746,0,0,1,.383-2.182,3.272,3.272,0,0,1,1.095-1.455,2.742,2.742,0,0,1,1.657-.517,2.7,2.7,0,0,1,2.28,1.012,4.456,4.456,0,0,1,.781,2.783C141.26,45.84,141.249,46.05,141.229,46.25Zm-.825-.9a3.424,3.424,0,0,0-.547-2.063,1.894,1.894,0,0,0-1.628-.743,1.92,1.92,0,0,0-1.575.75,3.874,3.874,0,0,0-.66,2.281h4.41Zm-.345-7.051.39.45-1.935,1.59h-.54l-1.95-1.59.39-.45,1.83,1.261Z"/><path d="M153.3,42.883a5.334,5.334,0,0,1,.712,2.992,5.2,5.2,0,0,1-.773,3.008A2.526,2.526,0,0,1,151.024,50a2.748,2.748,0,0,1-1.275-.292,2.883,2.883,0,0,1-.96-.788v3.871l-.87.12V41.99h.75l.075,1.14a3.172,3.172,0,0,1,1.058-.96,2.751,2.751,0,0,1,1.357-.344A2.407,2.407,0,0,1,153.3,42.883Zm-.788,5.528a4.609,4.609,0,0,0,.57-2.536q0-3.33-2.085-3.33a2.1,2.1,0,0,0-1.223.36,4.316,4.316,0,0,0-.982.991v4.169a2.37,2.37,0,0,0,2.07,1.2A1.864,1.864,0,0,0,152.509,48.411Z"/><path d="M160.353,38.3l.391.45-1.936,1.59h-.54l-1.949-1.59.39-.45,1.83,1.261Zm.106,3.616-.165.824a2.655,2.655,0,0,0-.691-.09,1.6,1.6,0,0,0-1.282.578,4.728,4.728,0,0,0-.817,1.808v4.8h-.87V41.99h.75l.075,1.756a3.139,3.139,0,0,1,.862-1.448,2,2,0,0,1,1.357-.472A2.846,2.846,0,0,1,160.459,41.916Z"/><path d="M163.129,38.72a.656.656,0,0,1,0,.9.654.654,0,0,1-.481.179.634.634,0,0,1-.465-.179.656.656,0,0,1,0-.9.634.634,0,0,1,.465-.179A.654.654,0,0,1,163.129,38.72Zm-.031,3.27v7.845h-.87V41.99Z"/><path d="M171.618,42.875a5.117,5.117,0,0,1,.75,3,5.126,5.126,0,0,1-.787,3.016,2.545,2.545,0,0,1-2.2,1.109,2.636,2.636,0,0,1-1.284-.314,2.937,2.937,0,0,1-.966-.841l-.09.99h-.766V38.8l.87-.105v4.4a2.821,2.821,0,0,1,2.356-1.259A2.449,2.449,0,0,1,171.618,42.875Zm-.757,5.543a4.588,4.588,0,0,0,.577-2.543q0-3.33-2.115-3.33a2.084,2.084,0,0,0-1.215.353,3.914,3.914,0,0,0-.96,1v4.125a2.987,2.987,0,0,0,.9.922,2.113,2.113,0,0,0,1.17.337A1.862,1.862,0,0,0,170.861,48.418Z"/><path d="M177.468,49.865a7.036,7.036,0,0,1-.69,1.5,3.161,3.161,0,0,1-.975.968,4.424,4.424,0,0,1-1.545.563l-.09-.676a4.15,4.15,0,0,0,1.222-.48,2.218,2.218,0,0,0,.705-.712,6.45,6.45,0,0,0,.533-1.193h-.3L173.6,41.99h.946l2.37,7.2,2.325-7.2h.915Z"/><path d="M182.276,49.625a1.524,1.524,0,0,1-.368-1.109V38.8l.87-.105v9.8c0,.511.21.765.63.765a1.281,1.281,0,0,0,.54-.1l.24.645a2,2,0,0,1-.9.209A1.35,1.35,0,0,1,182.276,49.625Z"/><path d="M191.305,42.9a4.6,4.6,0,0,1,.878,2.993,4.645,4.645,0,0,1-.892,3.007,3.261,3.261,0,0,1-4.875.015,4.639,4.639,0,0,1-.878-2.993,5.406,5.406,0,0,1,.405-2.174,3.018,3.018,0,0,1,2.925-1.92A2.974,2.974,0,0,1,191.305,42.9Zm-4.208.518a4.191,4.191,0,0,0-.629,2.5,4.2,4.2,0,0,0,.623,2.491,2.053,2.053,0,0,0,1.762.855,2.1,2.1,0,0,0,1.778-.855,4.193,4.193,0,0,0,.637-2.52,4.163,4.163,0,0,0-.623-2.483,2.275,2.275,0,0,0-3.548.008Z"/><path d="M202.488,49.505a2.933,2.933,0,0,1-1.65.495,1.858,1.858,0,0,1-1.41-.532,2.136,2.136,0,0,1-.51-1.537V42.7H197.6v-.7h1.321V40.115l.87-.105v1.98h2.025l-.1.7h-1.92v5.19a1.565,1.565,0,0,0,.285,1.028,1.074,1.074,0,0,0,.87.337,2.379,2.379,0,0,0,1.2-.345Z"/><path d="M209.387,46.25h-5.235a3.652,3.652,0,0,0,.728,2.273,2.175,2.175,0,0,0,1.717.743,2.932,2.932,0,0,0,1.088-.188,4.776,4.776,0,0,0,1.028-.593l.405.556a4.449,4.449,0,0,1-1.2.719,3.726,3.726,0,0,1-1.365.24,3.006,3.006,0,0,1-2.446-1.064,4.494,4.494,0,0,1-.885-2.956,5.746,5.746,0,0,1,.383-2.182,3.272,3.272,0,0,1,1.095-1.455,2.744,2.744,0,0,1,1.657-.517,2.7,2.7,0,0,1,2.28,1.012,4.456,4.456,0,0,1,.781,2.783C209.418,45.84,209.407,46.05,209.387,46.25Zm-.825-.9a3.417,3.417,0,0,0-.547-2.063,1.894,1.894,0,0,0-1.628-.743,1.921,1.921,0,0,0-1.575.75,3.874,3.874,0,0,0-.66,2.281h4.41Zm-.344-7.051.389.45-1.934,1.59h-.54l-1.951-1.59.39-.45,1.83,1.261Z"/><path d="M215.777,42.013a3.293,3.293,0,0,1,1.021.608l-.436.569a2.8,2.8,0,0,0-.8-.464,2.709,2.709,0,0,0-.937-.15,2.117,2.117,0,0,0-1.771.862,4.081,4.081,0,0,0-.66,2.513,3.914,3.914,0,0,0,.653,2.46,2.13,2.13,0,0,0,1.762.824,2.6,2.6,0,0,0,.953-.165,3.589,3.589,0,0,0,.863-.494l.42.585a3.385,3.385,0,0,1-2.25.839,3.192,3.192,0,0,1-1.755-.479,3.139,3.139,0,0,1-1.163-1.388,5.206,5.206,0,0,1-.413-2.168,5.379,5.379,0,0,1,.413-2.182,3.312,3.312,0,0,1,1.163-1.448,3.026,3.026,0,0,1,1.74-.509A3.551,3.551,0,0,1,215.777,42.013Z"/><path d="M224.012,42.463a2.552,2.552,0,0,1,.571,1.763v5.609h-.87v-5.49q0-1.813-1.486-1.815a2.225,2.225,0,0,0-1.327.413,4.513,4.513,0,0,0-1.1,1.207v5.685h-.87V38.8l.87-.105V43.3a3.1,3.1,0,0,1,2.594-1.469A2.057,2.057,0,0,1,224.012,42.463Z"/><path d="M228.16,48.778a.682.682,0,0,1,.2.5,2.076,2.076,0,0,1-.225.825l-.839,2h-.63l.6-2.2a.639.639,0,0,1-.255-.255.751.751,0,0,1-.089-.361.667.667,0,0,1,.21-.5.754.754,0,0,1,1.027,0Z"/><path d="M235.847,38.69V49.835h-.87V38.8Zm4.4,3.3-3.3,3.51,3.646,4.335h-1.05l-3.6-4.29,3.3-3.555Z"/><path d="M245.867,49.505a2.933,2.933,0,0,1-1.65.495,1.862,1.862,0,0,1-1.411-.532,2.14,2.14,0,0,1-.509-1.537V42.7h-1.321v-.7H242.3V40.115l.87-.105v1.98h2.025l-.105.7h-1.92v5.19a1.559,1.559,0,0,0,.285,1.028,1.072,1.072,0,0,0,.87.337,2.382,2.382,0,0,0,1.2-.345Z"/><path d="M252.767,46.25h-5.235a3.652,3.652,0,0,0,.728,2.273,2.175,2.175,0,0,0,1.717.743,2.935,2.935,0,0,0,1.088-.188,4.8,4.8,0,0,0,1.028-.593l.405.556a4.449,4.449,0,0,1-1.2.719,3.735,3.735,0,0,1-1.366.24,3.006,3.006,0,0,1-2.445-1.064,4.494,4.494,0,0,1-.885-2.956,5.746,5.746,0,0,1,.383-2.182,3.272,3.272,0,0,1,1.095-1.455,2.742,2.742,0,0,1,1.657-.517,2.7,2.7,0,0,1,2.28,1.012,4.456,4.456,0,0,1,.781,2.783C252.8,45.84,252.787,46.05,252.767,46.25Zm-.825-.9a3.417,3.417,0,0,0-.547-2.063,1.894,1.894,0,0,0-1.628-.743,1.921,1.921,0,0,0-1.575.75,3.874,3.874,0,0,0-.66,2.281h4.41Z"/><path d="M258.992,38.3l.391.45-1.936,1.59h-.54l-1.949-1.59.389-.45,1.831,1.261Zm.1,3.616-.165.824a2.647,2.647,0,0,0-.69-.09,1.6,1.6,0,0,0-1.282.578,4.742,4.742,0,0,0-.818,1.808v4.8h-.87V41.99h.75l.075,1.756a3.132,3.132,0,0,1,.863-1.448,2,2,0,0,1,1.357-.472A2.838,2.838,0,0,1,259.1,41.916Z"/><path d="M262.428,38.1l.389.78-2.925,1.276-.285-.511Zm-.691,3.885v7.845h-.87V41.99Z"/><path d="M272.356,42.043a4.419,4.419,0,0,1,1.17.652l-.4.571a4.475,4.475,0,0,0-1.021-.548,3.082,3.082,0,0,0-1.049-.173,2.05,2.05,0,0,0-1.26.36,1.141,1.141,0,0,0-.481.96,1.047,1.047,0,0,0,.413.885,4.544,4.544,0,0,0,1.493.6,4.745,4.745,0,0,1,1.927.869,1.9,1.9,0,0,1,.592,1.5,1.978,1.978,0,0,1-.809,1.665A3.255,3.255,0,0,1,270.9,50a4.326,4.326,0,0,1-1.574-.262A4.227,4.227,0,0,1,268.1,49l.481-.556a3.851,3.851,0,0,0,1.072.623,3.546,3.546,0,0,0,1.237.2,2.287,2.287,0,0,0,1.4-.4,1.3,1.3,0,0,0,.532-1.1,1.5,1.5,0,0,0-.18-.781,1.445,1.445,0,0,0-.615-.517,7.122,7.122,0,0,0-1.274-.443,4.38,4.38,0,0,1-1.793-.824,1.693,1.693,0,0,1-.547-1.321,1.742,1.742,0,0,1,.345-1.057,2.262,2.262,0,0,1,.937-.735,3.241,3.241,0,0,1,1.327-.262A3.891,3.891,0,0,1,272.356,42.043Z"/><path d="M276.962,38.72a.656.656,0,0,1,0,.9.654.654,0,0,1-.481.179.634.634,0,0,1-.465-.179.656.656,0,0,1,0-.9.634.634,0,0,1,.465-.179A.654.654,0,0,1,276.962,38.72Zm-.031,3.27v7.845h-.87V41.99Z"/><path d="M289.531,41.99l-2.715,7.845h-1.08L282.93,41.99h.96l2.386,7.08,2.324-7.08Z"/><path d="M294.511,42.043a4.413,4.413,0,0,1,1.169.652l-.4.571a4.47,4.47,0,0,0-1.02-.548,3.088,3.088,0,0,0-1.05-.173,2.05,2.05,0,0,0-1.26.36,1.143,1.143,0,0,0-.48.96,1.045,1.045,0,0,0,.413.885,4.527,4.527,0,0,0,1.492.6,4.75,4.75,0,0,1,1.928.869,1.9,1.9,0,0,1,.591,1.5,1.978,1.978,0,0,1-.809,1.665,3.253,3.253,0,0,1-2.026.615,4.326,4.326,0,0,1-1.574-.262,4.209,4.209,0,0,1-1.23-.742l.48-.556a3.851,3.851,0,0,0,1.072.623,3.552,3.552,0,0,0,1.238.2,2.284,2.284,0,0,0,1.4-.4,1.3,1.3,0,0,0,.532-1.1,1.505,1.505,0,0,0-.179-.781,1.448,1.448,0,0,0-.616-.517,7.093,7.093,0,0,0-1.274-.443,4.38,4.38,0,0,1-1.793-.824,1.693,1.693,0,0,1-.547-1.321,1.742,1.742,0,0,1,.345-1.057,2.262,2.262,0,0,1,.937-.735,3.242,3.242,0,0,1,1.328-.262A3.9,3.9,0,0,1,294.511,42.043Zm.57-3.743.389.45-1.934,1.59H293l-1.95-1.59.389-.45,1.83,1.261Z"/><path d="M299.776,38.1l.39.78-2.925,1.276-.285-.511Zm-.69,3.885v7.845h-.87V41.99Z"/><path d="M311.408,42.47a2.626,2.626,0,0,1,.548,1.756v5.609h-.87v-5.49a2.19,2.19,0,0,0-.353-1.372,1.185,1.185,0,0,0-.982-.443,1.845,1.845,0,0,0-1.186.421,4.839,4.839,0,0,0-1.019,1.2v5.685h-.87v-5.49a2.19,2.19,0,0,0-.353-1.372,1.185,1.185,0,0,0-.982-.443,1.864,1.864,0,0,0-1.2.421,4.611,4.611,0,0,0-1,1.2v5.685h-.871V41.99h.75l.076,1.336a3.553,3.553,0,0,1,1.065-1.1,2.432,2.432,0,0,1,1.35-.4,1.934,1.934,0,0,1,1.259.412,2.053,2.053,0,0,1,.691,1.147,3.75,3.75,0,0,1,1.087-1.147,2.434,2.434,0,0,1,1.373-.412A1.856,1.856,0,0,1,311.408,42.47Z"/><path d="M320.093,48.98a.955.955,0,0,0,.5.405l-.2.615a1.54,1.54,0,0,1-.832-.405,1.617,1.617,0,0,1-.383-.914A2.678,2.678,0,0,1,316.74,50a2.433,2.433,0,0,1-1.777-.637,2.271,2.271,0,0,1-.653-1.7,2.22,2.22,0,0,1,.863-1.875,3.855,3.855,0,0,1,2.392-.661h1.5V44.36a1.542,1.542,0,0,0-1.814-1.8,6.344,6.344,0,0,0-2.13.449l-.226-.659a6.7,6.7,0,0,1,2.476-.525,2.234,2.234,0,0,1,2.564,2.489V48.1A1.846,1.846,0,0,0,320.093,48.98Zm-1.028-1.064V45.755H317.7a3.056,3.056,0,0,0-1.83.465,1.625,1.625,0,0,0-.631,1.4,1.685,1.685,0,0,0,.436,1.245,1.642,1.642,0,0,0,1.214.435A2.383,2.383,0,0,0,319.065,47.916Z"/><path d="M323.82,49.55a4.806,4.806,0,0,1-.225,1.628,2.283,2.283,0,0,1-.66.975,5.31,5.31,0,0,1-1.23.727l-.255-.63a3.953,3.953,0,0,0,.878-.562,1.731,1.731,0,0,0,.465-.765,4.572,4.572,0,0,0,.157-1.342V41.99h.87Zm.03-10.83a.654.654,0,0,1,0,.9.652.652,0,0,1-.48.179.632.632,0,0,1-.465-.179.654.654,0,0,1,0-.9.632.632,0,0,1,.465-.179A.652.652,0,0,1,323.85,38.72Z"/><path d="M328.741,38.1l.39.78-2.925,1.276-.285-.511Zm-.69,3.885v7.845h-.871V41.99Z"/><path d="M340.793,42.883a5.334,5.334,0,0,1,.712,2.992,5.2,5.2,0,0,1-.773,3.008A2.525,2.525,0,0,1,338.52,50a2.751,2.751,0,0,1-1.275-.292,2.883,2.883,0,0,1-.96-.788v3.871l-.87.12V41.99h.75l.075,1.14a3.181,3.181,0,0,1,1.058-.96,2.751,2.751,0,0,1,1.357-.344A2.407,2.407,0,0,1,340.793,42.883Zm-.788,5.528a4.6,4.6,0,0,0,.57-2.536q0-3.33-2.085-3.33a2.1,2.1,0,0,0-1.223.36,4.316,4.316,0,0,0-.982.991v4.169a2.37,2.37,0,0,0,2.07,1.2A1.864,1.864,0,0,0,340.005,48.411Z"/><path d="M347.955,41.916l-.165.824a2.655,2.655,0,0,0-.691-.09,1.6,1.6,0,0,0-1.282.578A4.728,4.728,0,0,0,345,45.036v4.8h-.87V41.99h.75l.075,1.756a3.139,3.139,0,0,1,.862-1.448,2.006,2.006,0,0,1,1.358-.472A2.843,2.843,0,0,1,347.955,41.916Z"/><path d="M354.412,42.9a4.6,4.6,0,0,1,.878,2.993A4.645,4.645,0,0,1,354.4,48.9a3.261,3.261,0,0,1-4.875.015,4.639,4.639,0,0,1-.878-2.993,5.389,5.389,0,0,1,.406-2.174,3.017,3.017,0,0,1,2.924-1.92A2.976,2.976,0,0,1,354.412,42.9Zm-4.208.518a4.184,4.184,0,0,0-.63,2.5,4.2,4.2,0,0,0,.623,2.491,2.054,2.054,0,0,0,1.763.855,2.1,2.1,0,0,0,1.777-.855,4.185,4.185,0,0,0,.638-2.52,4.163,4.163,0,0,0-.623-2.483,2.275,2.275,0,0,0-3.548.008Z"/><path d="M358.71,49.55a4.806,4.806,0,0,1-.225,1.628,2.283,2.283,0,0,1-.66.975,5.3,5.3,0,0,1-1.231.727l-.254-.63a4,4,0,0,0,.878-.562,1.721,1.721,0,0,0,.464-.765,4.534,4.534,0,0,0,.158-1.342V41.99h.87Zm.03-10.83a.654.654,0,0,1,0,.9.652.652,0,0,1-.48.179.632.632,0,0,1-.465-.179.654.654,0,0,1,0-.9.632.632,0,0,1,.465-.179A.652.652,0,0,1,358.74,38.72Z"/><path d="M367.425,46.25h-5.236a3.652,3.652,0,0,0,.728,2.273,2.177,2.177,0,0,0,1.718.743,2.93,2.93,0,0,0,1.087-.188,4.776,4.776,0,0,0,1.028-.593l.4.556a4.449,4.449,0,0,1-1.2.719,3.726,3.726,0,0,1-1.365.24,3.008,3.008,0,0,1-2.446-1.064,4.494,4.494,0,0,1-.884-2.956,5.746,5.746,0,0,1,.382-2.182,3.272,3.272,0,0,1,1.1-1.455,2.744,2.744,0,0,1,1.657-.517,2.705,2.705,0,0,1,2.281,1.012,4.462,4.462,0,0,1,.78,2.783C367.455,45.84,367.444,46.05,367.425,46.25Zm-.826-.9a3.424,3.424,0,0,0-.546-2.063,1.9,1.9,0,0,0-1.628-.743,1.922,1.922,0,0,0-1.576.75,3.874,3.874,0,0,0-.66,2.281h4.41Z"/><path d="M375.135,41.99l-2.715,7.845h-1.08l-2.806-7.845h.96l2.386,7.08,2.324-7.08Z"/><path d="M382.454,49.835h-.75l-.045-1.4A2.862,2.862,0,0,1,379.094,50a2.128,2.128,0,0,1-1.642-.622,2.513,2.513,0,0,1-.578-1.777V41.99h.87v5.52a1.974,1.974,0,0,0,.383,1.343,1.48,1.48,0,0,0,1.162.427,2.679,2.679,0,0,0,2.3-1.605V41.99h.87Zm-1.733-11.917a1.445,1.445,0,0,1,0,2.025,1.46,1.46,0,0,1-1.057.4,1.48,1.48,0,0,1-1.072-.4,1.448,1.448,0,0,1,0-2.025,1.48,1.48,0,0,1,1.072-.4A1.46,1.46,0,0,1,380.721,37.918Zm-1.679.375a1.053,1.053,0,0,0,0,1.283.823.823,0,0,0,.622.224.8.8,0,0,0,.607-.224,1.053,1.053,0,0,0,0-1.283.788.788,0,0,0-.607-.232A.808.808,0,0,0,379.042,38.293Z"/><path d="M395.654,42.155a9.67,9.67,0,0,1-2.175.225,2.183,2.183,0,0,1,1.335,2.13,2.436,2.436,0,0,1-.764,1.868,2.921,2.921,0,0,1-2.071.712,3.1,3.1,0,0,1-1.019-.15,1.339,1.339,0,0,0-.444.4.886.886,0,0,0-.157.5q0,.81,1.245.81h1.276a2.8,2.8,0,0,1,1.837.563,1.79,1.79,0,0,1,.682,1.448,1.9,1.9,0,0,1-.854,1.665,4.549,4.549,0,0,1-2.551.585,4.5,4.5,0,0,1-2.512-.533,1.95,1.95,0,0,1-.758-1.717h.81a1.66,1.66,0,0,0,.24.9,1.312,1.312,0,0,0,.75.48,5.66,5.66,0,0,0,1.47.149,3.687,3.687,0,0,0,1.92-.382,1.23,1.23,0,0,0,.6-1.1,1.126,1.126,0,0,0-.464-.968,2.2,2.2,0,0,0-1.306-.338h-1.275a2.285,2.285,0,0,1-1.432-.39,1.2,1.2,0,0,1-.5-.989,1.315,1.315,0,0,1,.226-.735,1.994,1.994,0,0,1,.629-.6,2.379,2.379,0,0,1-1-.886,2.541,2.541,0,0,1-.322-1.32,2.49,2.49,0,0,1,.795-1.919,2.949,2.949,0,0,1,2.085-.735,12.031,12.031,0,0,0,2.078-.106,6.976,6.976,0,0,0,1.358-.405Zm-5.183.886a2.025,2.025,0,0,0-.5,1.439,1.949,1.949,0,0,0,.533,1.456,1.969,1.969,0,0,0,3.427-1.44,2.045,2.045,0,0,0-.5-1.471,1.953,1.953,0,0,0-1.478-.525A1.924,1.924,0,0,0,390.471,43.041Z"/><path d="M397.657,49.625a1.524,1.524,0,0,1-.368-1.109V38.8l.87-.105v9.8c0,.511.21.765.63.765a1.284,1.284,0,0,0,.54-.1l.24.645a2,2,0,0,1-.9.209A1.35,1.35,0,0,1,397.657,49.625Z"/><path d="M406.686,42.9a4.6,4.6,0,0,1,.878,2.993,4.651,4.651,0,0,1-.892,3.007,3.261,3.261,0,0,1-4.875.015,4.639,4.639,0,0,1-.878-2.993,5.389,5.389,0,0,1,.405-2.174,3.018,3.018,0,0,1,2.925-1.92A2.974,2.974,0,0,1,406.686,42.9Zm-4.208.518a4.184,4.184,0,0,0-.63,2.5,4.2,4.2,0,0,0,.623,2.491,2.054,2.054,0,0,0,1.763.855,2.093,2.093,0,0,0,1.777-.855,4.185,4.185,0,0,0,.638-2.52,4.163,4.163,0,0,0-.623-2.483,2.275,2.275,0,0,0-3.548.008Z"/><path d="M415.454,42.875a5.117,5.117,0,0,1,.75,3,5.126,5.126,0,0,1-.787,3.016,2.546,2.546,0,0,1-2.2,1.109,2.635,2.635,0,0,1-1.283-.314,2.951,2.951,0,0,1-.967-.841l-.089.99h-.766V38.8l.87-.105v4.4a2.821,2.821,0,0,1,2.356-1.259A2.449,2.449,0,0,1,415.454,42.875Zm-.757,5.543a4.588,4.588,0,0,0,.577-2.543q0-3.33-2.115-3.33a2.084,2.084,0,0,0-1.215.353,3.914,3.914,0,0,0-.96,1v4.125a2.987,2.987,0,0,0,.9.922,2.112,2.112,0,0,0,1.169.337A1.863,1.863,0,0,0,414.7,48.418Z"/><path d="M423.711,48.98a.953.953,0,0,0,.5.405l-.2.615a1.544,1.544,0,0,1-.832-.405,1.617,1.617,0,0,1-.383-.914A2.678,2.678,0,0,1,420.358,50a2.433,2.433,0,0,1-1.777-.637,2.271,2.271,0,0,1-.653-1.7,2.222,2.222,0,0,1,.863-1.875,3.855,3.855,0,0,1,2.392-.661h1.5V44.36a1.542,1.542,0,0,0-1.814-1.8,6.344,6.344,0,0,0-2.13.449l-.226-.659a6.7,6.7,0,0,1,2.476-.525,2.234,2.234,0,0,1,2.564,2.489V48.1A1.846,1.846,0,0,0,423.711,48.98Zm-1.028-1.064V45.755h-1.364a3.056,3.056,0,0,0-1.83.465,1.625,1.625,0,0,0-.631,1.4,1.685,1.685,0,0,0,.436,1.245,1.642,1.642,0,0,0,1.215.435A2.381,2.381,0,0,0,422.683,47.916Zm-.6-9.811.389.78-2.924,1.276-.286-.511Z"/><path d="M426.862,49.625a1.524,1.524,0,0,1-.368-1.109V38.8l.87-.105v9.8c0,.511.21.765.63.765a1.281,1.281,0,0,0,.54-.1l.24.645a2,2,0,0,1-.9.209A1.35,1.35,0,0,1,426.862,49.625Z"/><path d="M435.922,42.456a2.565,2.565,0,0,1,.562,1.77v5.609h-.87v-5.49a2.088,2.088,0,0,0-.375-1.38,1.385,1.385,0,0,0-1.11-.435,2.223,2.223,0,0,0-1.327.413,4.531,4.531,0,0,0-1.1,1.207v5.685h-.87V41.99h.75l.09,1.336a3.664,3.664,0,0,1,1.14-1.1,2.822,2.822,0,0,1,1.485-.4A2.069,2.069,0,0,1,435.922,42.456Z"/><path d="M441.149,38.1l.39.78-2.925,1.276-.285-.511Zm-.69,3.885v7.845h-.87V41.99Z"/><path d="M452.054,41.99v.676l-4.379,6.419h4.349l-.09.75h-5.28v-.674l4.38-6.421h-4.02v-.75Z"/><path d="M463.3,42.47a2.626,2.626,0,0,1,.548,1.756v5.609h-.871v-5.49a2.2,2.2,0,0,0-.352-1.372,1.187,1.187,0,0,0-.983-.443,1.843,1.843,0,0,0-1.185.421,4.82,4.82,0,0,0-1.02,1.2v5.685h-.87v-5.49a2.19,2.19,0,0,0-.352-1.372,1.188,1.188,0,0,0-.983-.443,1.863,1.863,0,0,0-1.2.421,4.613,4.613,0,0,0-1,1.2v5.685h-.87V41.99h.75l.075,1.336a3.566,3.566,0,0,1,1.066-1.1,2.431,2.431,0,0,1,1.349-.4,1.939,1.939,0,0,1,1.26.412,2.059,2.059,0,0,1,.691,1.147,3.748,3.748,0,0,1,1.086-1.147,2.434,2.434,0,0,1,1.373-.412A1.86,1.86,0,0,1,463.3,42.47Z"/><path d="M472.483,46.25h-5.235a3.658,3.658,0,0,0,.727,2.273,2.179,2.179,0,0,0,1.718.743,2.935,2.935,0,0,0,1.088-.188,4.8,4.8,0,0,0,1.027-.593l.406.556a4.438,4.438,0,0,1-1.2.719,3.726,3.726,0,0,1-1.365.24,3.006,3.006,0,0,1-2.445-1.064,4.494,4.494,0,0,1-.885-2.956A5.746,5.746,0,0,1,466.7,43.8a3.272,3.272,0,0,1,1.095-1.455,2.742,2.742,0,0,1,1.657-.517,2.7,2.7,0,0,1,2.28,1.012,4.455,4.455,0,0,1,.78,2.783Q472.513,45.95,472.483,46.25Zm-.825-.9a3.424,3.424,0,0,0-.547-2.063,1.894,1.894,0,0,0-1.628-.743,1.92,1.92,0,0,0-1.575.75,3.874,3.874,0,0,0-.66,2.281h4.41Zm-.345-7.051.39.45-1.935,1.59h-.54l-1.95-1.59.39-.45,1.83,1.261Z"/><path d="M480.081,42.456a2.565,2.565,0,0,1,.562,1.77v5.609h-.87v-5.49a2.088,2.088,0,0,0-.375-1.38,1.385,1.385,0,0,0-1.11-.435,2.223,2.223,0,0,0-1.327.413,4.531,4.531,0,0,0-1.1,1.207v5.685h-.87V41.99h.75l.09,1.336a3.656,3.656,0,0,1,1.141-1.1,2.816,2.816,0,0,1,1.484-.4A2.069,2.069,0,0,1,480.081,42.456Z"/><path d="M486.119,49.865a7.036,7.036,0,0,1-.69,1.5,3.161,3.161,0,0,1-.975.968,4.417,4.417,0,0,1-1.545.563l-.09-.676a4.146,4.146,0,0,0,1.223-.48,2.228,2.228,0,0,0,.705-.712,6.456,6.456,0,0,0,.532-1.193h-.3l-2.73-7.845h.945l2.37,7.2,2.325-7.2h.915Z"/><path d="M495.688,38.69V49.835h-.87V38.8Zm4.4,3.3-3.3,3.51,3.645,4.335h-1.049l-3.6-4.29,3.3-3.555Z"/><path d="M502.431,49.625a1.524,1.524,0,0,1-.368-1.109V38.8l.87-.105v9.8c0,.511.21.765.63.765a1.281,1.281,0,0,0,.54-.1l.241.645a2,2,0,0,1-.9.209A1.351,1.351,0,0,1,502.431,49.625Z"/><path d="M507.3,38.72a.656.656,0,0,1,0,.9.656.656,0,0,1-.481.179.634.634,0,0,1-.465-.179.656.656,0,0,1,0-.9.634.634,0,0,1,.465-.179A.656.656,0,0,1,507.3,38.72Zm-.031,3.27v7.845h-.87V41.99Z"/><path d="M519.591,42.47a2.626,2.626,0,0,1,.547,1.756v5.609h-.87v-5.49a2.2,2.2,0,0,0-.352-1.372,1.188,1.188,0,0,0-.983-.443,1.843,1.843,0,0,0-1.185.421,4.82,4.82,0,0,0-1.02,1.2v5.685h-.87v-5.49a2.19,2.19,0,0,0-.352-1.372,1.188,1.188,0,0,0-.983-.443,1.863,1.863,0,0,0-1.2.421,4.593,4.593,0,0,0-1,1.2v5.685h-.87V41.99h.75l.075,1.336a3.555,3.555,0,0,1,1.066-1.1,2.431,2.431,0,0,1,1.349-.4,1.939,1.939,0,0,1,1.26.412,2.052,2.052,0,0,1,.69,1.147,3.762,3.762,0,0,1,1.087-1.147,2.434,2.434,0,0,1,1.373-.412A1.86,1.86,0,0,1,519.591,42.47Z"/><path d="M528.275,48.98a.961.961,0,0,0,.5.405l-.2.615a1.537,1.537,0,0,1-.832-.405,1.6,1.6,0,0,1-.383-.914A2.679,2.679,0,0,1,524.923,50a2.437,2.437,0,0,1-1.778-.637,2.274,2.274,0,0,1-.652-1.7,2.222,2.222,0,0,1,.862-1.875,3.856,3.856,0,0,1,2.393-.661h1.5V44.36a1.542,1.542,0,0,0-1.815-1.8,6.354,6.354,0,0,0-2.13.449l-.225-.659a6.7,6.7,0,0,1,2.475-.525,2.234,2.234,0,0,1,2.565,2.489V48.1A1.86,1.86,0,0,0,528.275,48.98Zm-1.027-1.064V45.755h-1.364a3.06,3.06,0,0,0-1.831.465,1.627,1.627,0,0,0-.63,1.4,1.685,1.685,0,0,0,.435,1.245,1.642,1.642,0,0,0,1.215.435A2.384,2.384,0,0,0,527.248,47.916Z"/><path d="M534.853,49.505A2.933,2.933,0,0,1,533.2,50a1.86,1.86,0,0,1-1.41-.532,2.136,2.136,0,0,1-.51-1.537V42.7h-1.32v-.7h1.32V40.115l.87-.105v1.98h2.025l-.105.7h-1.92v5.19a1.565,1.565,0,0,0,.285,1.028,1.075,1.075,0,0,0,.87.337,2.385,2.385,0,0,0,1.2-.345Z"/><path d="M541.9,49.835h-.75l-.045-1.4A2.86,2.86,0,0,1,538.543,50a2.129,2.129,0,0,1-1.643-.622,2.513,2.513,0,0,1-.578-1.777V41.99h.87v5.52a1.974,1.974,0,0,0,.383,1.343,1.481,1.481,0,0,0,1.162.427,2.679,2.679,0,0,0,2.3-1.605V41.99h.87Z"/><rect class="cls-2" x="64.894" y="133.204" width="51.3" height="30"/><rect class="cls-3" x="116.194" y="133.204" width="163.179" height="30"/><rect class="cls-4" x="279.373" y="133.204" width="100.964" height="30"/><rect class="cls-5" x="380.337" y="133.204" width="49.117" height="30"/><rect class="cls-6" x="429.454" y="133.204" width="181.189" height="30"/><rect class="cls-2" x="64.894" y="183.321" width="85.683" height="30"/><rect class="cls-3" x="150.576" y="183.321" width="265.234" height="30"/><rect class="cls-4" x="415.81" y="183.321" width="97.143" height="30"/><rect class="cls-5" x="512.954" y="183.321" width="74.768" height="30"/><rect class="cls-6" x="587.721" y="183.321" width="22.376" height="30"/><line class="cls-7" x1="116.194" y1="163.204" x2="150.576" y2="183.321"/><line class="cls-7" x1="279.373" y1="163.204" x2="415.81" y2="183.321"/><line class="cls-7" x1="380.337" y1="163.204" x2="512.954" y2="183.321"/><line class="cls-7" x1="587.721" y1="183.321" x2="429.454" y2="163.204"/><line class="cls-7" x1="610.097" y1="183.321" x2="610.643" y2="163.204"/><line class="cls-8" x1="64.894" y1="219.544" x2="64.894" y2="223.544"/><line class="cls-8" x1="610.643" y1="219.544" x2="610.643" y2="223.544"/><line class="cls-8" x1="337.768" y1="219.544" x2="337.768" y2="223.544"/><line class="cls-8" x1="201.331" y1="219.544" x2="201.331" y2="223.544"/><line class="cls-8" x1="474.205" y1="219.544" x2="474.205" y2="223.544"/><path class="cls-9" d="M81.85,144.1a3.884,3.884,0,0,1,.715,2.476,7.173,7.173,0,0,1-.48,2.866,3.912,3.912,0,0,1-1.47,1.729,10.193,10.193,0,0,1-2.678,1.138l-.272-.9a6.621,6.621,0,0,0,2.671-1.339,3.1,3.1,0,0,0,1-2.249,2.26,2.26,0,0,1-.807.754,2.3,2.3,0,0,1-1.143.286,2.24,2.24,0,0,1-1.223-.345,2.4,2.4,0,0,1-.864-.975,3.235,3.235,0,0,1-.319-1.475,3,3,0,0,1,.377-1.534,2.576,2.576,0,0,1,1.008-1,2.872,2.872,0,0,1,1.4-.344A2.506,2.506,0,0,1,81.85,144.1Zm-.494,2.749A4.03,4.03,0,0,0,81,144.778a1.319,1.319,0,0,0-1.216-.63,1.445,1.445,0,0,0-1.183.507,2.221,2.221,0,0,0-.416,1.443,2.076,2.076,0,0,0,.39,1.371,1.309,1.309,0,0,0,1.054.462A2.037,2.037,0,0,0,81.356,146.852Z"/><path class="cls-9" d="M85.413,150.635a.868.868,0,0,1,.26.637,2.3,2.3,0,0,1-.235.923l-.871,1.989H83.71l.519-2.158a.936.936,0,0,1-.363-.754.888.888,0,0,1,.9-.9A.883.883,0,0,1,85.413,150.635Z"/><path class="cls-9" d="M92.432,148.932v.949H91.3v2.145H90.144v-2.145H86.426v-.858l2.613-5.824,1,.416-2.353,5.317h2.47l.1-2.34H91.3v2.34Z"/><path class="cls-9" d="M100.486,143.8a2.459,2.459,0,0,1,0,3.2,2.233,2.233,0,0,1-3.042,0,2.455,2.455,0,0,1,0-3.2,2.233,2.233,0,0,1,3.042,0Zm-2.34.6a2.185,2.185,0,0,0,0,1.995.873.873,0,0,0,.813.4q1.051,0,1.052-1.391a1.936,1.936,0,0,0-.234-.995,1.043,1.043,0,0,0-1.631-.006Zm6.09-1.612.832.546-6.018,9.1-.832-.546Zm1.6,5.6a2.478,2.478,0,0,1,0,3.2,2.242,2.242,0,0,1-3.049,0,2.455,2.455,0,0,1,0-3.2,2.242,2.242,0,0,1,3.049,0Zm-2.334.6a1.853,1.853,0,0,0-.241,1,1.888,1.888,0,0,0,.241.994.872.872,0,0,0,.812.4q1.053,0,1.053-1.391a1.894,1.894,0,0,0-.233-.988,1.055,1.055,0,0,0-1.632-.007Z"/><path d="M7.64,146.188l-.254,1.351a2.851,2.851,0,0,0-.69-.09,1.463,1.463,0,0,0-1.185.54,4.013,4.013,0,0,0-.706,1.679v4.516H3.426v-7.905H4.611l.135,1.6a3,3,0,0,1,.854-1.335,1.913,1.913,0,0,1,1.261-.45A3.2,3.2,0,0,1,7.64,146.188Z"/><path d="M14.323,147.208a4.578,4.578,0,0,1,.923,3.016,5.272,5.272,0,0,1-.42,2.167,3.3,3.3,0,0,1-1.216,1.455,3.385,3.385,0,0,1-1.89.518,3.2,3.2,0,0,1-2.594-1.111,4.543,4.543,0,0,1-.93-3.014,5.258,5.258,0,0,1,.42-2.168,3.287,3.287,0,0,1,1.215-1.455,3.411,3.411,0,0,1,1.9-.517A3.181,3.181,0,0,1,14.323,147.208ZM9.68,150.239q0,3.015,2.04,3.014t2.041-3.029q0-3.017-2.026-3.016Q9.68,147.208,9.68,150.239Z"/><path d="M18.905,142.934v11.25h-1.38V143.1Zm4.545,3.345-2.909,3.494,3.239,4.411H22.131L19,149.864l2.91-3.585Z"/><path d="M32.759,144.358a2.619,2.619,0,0,1,1.431,2.386,3.936,3.936,0,0,1-.412,1.755,8.528,8.528,0,0,1-1.267,1.814q-.857.977-2.6,2.716H34.43l-.165,1.155H28.341v-1.1Q30.35,151,31.19,150.036a8.526,8.526,0,0,0,1.2-1.687,3.4,3.4,0,0,0,.361-1.545,1.54,1.54,0,0,0-1.651-1.665,2.213,2.213,0,0,0-1.08.255,3.978,3.978,0,0,0-.989.839l-.9-.719a4.128,4.128,0,0,1,1.365-1.14,3.7,3.7,0,0,1,1.68-.375A3.362,3.362,0,0,1,32.759,144.358Z"/><path d="M41.878,145.326a9.18,9.18,0,0,1,0,7.7,3.032,3.032,0,0,1-5.025,0,9.18,9.18,0,0,1,0-7.7,3.042,3.042,0,0,1,5.025,0Zm-3.96.728a10.55,10.55,0,0,0,0,6.247,1.56,1.56,0,0,0,2.887,0,10.359,10.359,0,0,0,0-6.24,1.563,1.563,0,0,0-2.887-.007Z"/><path d="M48.02,144.148v10.036H46.64v-8.565L44.3,147.043l-.6-.975,3.1-1.92Z"/><path d="M55.97,145.229H52.055v2.955a3.49,3.49,0,0,1,1.606-.391,2.677,2.677,0,0,1,2.069.848,3.308,3.308,0,0,1,.781,2.333,3.528,3.528,0,0,1-.435,1.762,3.038,3.038,0,0,1-1.223,1.2,3.761,3.761,0,0,1-1.822.428,3.968,3.968,0,0,1-1.636-.323,4.352,4.352,0,0,1-1.335-.953l.811-.795a3.382,3.382,0,0,0,.99.713,2.753,2.753,0,0,0,1.154.233,1.94,1.94,0,0,0,1.508-.6,2.426,2.426,0,0,0,.548-1.7,2.178,2.178,0,0,0-.495-1.589,1.8,1.8,0,0,0-1.335-.5,2.973,2.973,0,0,0-.721.083,3.7,3.7,0,0,0-.705.263H50.736v-5.056h5.43Z"/><path d="M7.64,194.938l-.254,1.351a2.851,2.851,0,0,0-.69-.09,1.463,1.463,0,0,0-1.185.54,4.013,4.013,0,0,0-.706,1.679v4.516H3.426v-7.905H4.611l.135,1.6A3,3,0,0,1,5.6,195.3a1.913,1.913,0,0,1,1.261-.45A3.2,3.2,0,0,1,7.64,194.938Z"/><path d="M14.323,195.958a4.578,4.578,0,0,1,.923,3.016,5.272,5.272,0,0,1-.42,2.167A3.3,3.3,0,0,1,13.61,202.6a3.385,3.385,0,0,1-1.89.518A3.2,3.2,0,0,1,9.126,202a4.543,4.543,0,0,1-.93-3.014,5.258,5.258,0,0,1,.42-2.168,3.287,3.287,0,0,1,1.215-1.455,3.411,3.411,0,0,1,1.9-.517A3.181,3.181,0,0,1,14.323,195.958ZM9.68,198.989Q9.68,202,11.72,202t2.041-3.029q0-3.017-2.026-3.016Q9.68,195.958,9.68,198.989Z"/><path d="M18.905,191.684v11.25h-1.38V191.849Zm4.545,3.345-2.909,3.494,3.239,4.411H22.131L19,198.614l2.91-3.585Z"/><path d="M32.759,193.108a2.619,2.619,0,0,1,1.431,2.386,3.936,3.936,0,0,1-.412,1.755,8.528,8.528,0,0,1-1.267,1.814q-.857.977-2.6,2.716H34.43l-.165,1.155H28.341v-1.1q2.008-2.083,2.849-3.052a8.526,8.526,0,0,0,1.2-1.687,3.4,3.4,0,0,0,.361-1.545,1.54,1.54,0,0,0-1.651-1.665,2.213,2.213,0,0,0-1.08.255,3.978,3.978,0,0,0-.989.839l-.9-.719a4.128,4.128,0,0,1,1.365-1.14,3.7,3.7,0,0,1,1.68-.375A3.362,3.362,0,0,1,32.759,193.108Z"/><path d="M41.878,194.076a9.18,9.18,0,0,1,0,7.7,3.032,3.032,0,0,1-5.025,0,9.18,9.18,0,0,1,0-7.7,3.042,3.042,0,0,1,5.025,0Zm-3.96.728a10.55,10.55,0,0,0,0,6.247,1.56,1.56,0,0,0,2.887,0,10.359,10.359,0,0,0,0-6.24,1.563,1.563,0,0,0-2.887-.007Z"/><path d="M48.374,193.108a2.619,2.619,0,0,1,1.431,2.386,3.923,3.923,0,0,1-.412,1.755,8.528,8.528,0,0,1-1.267,1.814q-.856.977-2.595,2.716h4.515l-.165,1.155H43.956v-1.1q2.01-2.083,2.849-3.052a8.579,8.579,0,0,0,1.2-1.687,3.407,3.407,0,0,0,.36-1.545,1.54,1.54,0,0,0-1.65-1.665,2.208,2.208,0,0,0-1.08.255,3.963,3.963,0,0,0-.99.839l-.9-.719a4.128,4.128,0,0,1,1.365-1.14,3.7,3.7,0,0,1,1.68-.375A3.362,3.362,0,0,1,48.374,193.108Z"/><path d="M55.265,192.9v10.036H53.886v-8.565l-2.34,1.424-.6-.975,3.105-1.92Z"/><path class="cls-9" d="M395.863,144.1a3.884,3.884,0,0,1,.715,2.476,7.154,7.154,0,0,1-.481,2.866,3.9,3.9,0,0,1-1.469,1.729,10.208,10.208,0,0,1-2.678,1.138l-.272-.9a6.617,6.617,0,0,0,2.67-1.339,3.1,3.1,0,0,0,1-2.249,2.268,2.268,0,0,1-.807.754,2.3,2.3,0,0,1-1.144.286,2.239,2.239,0,0,1-1.222-.345,2.4,2.4,0,0,1-.865-.975,3.235,3.235,0,0,1-.318-1.475,3,3,0,0,1,.377-1.534,2.576,2.576,0,0,1,1.008-1,2.871,2.871,0,0,1,1.4-.344A2.509,2.509,0,0,1,395.863,144.1Zm-.494,2.749a4.038,4.038,0,0,0-.358-2.074,1.317,1.317,0,0,0-1.215-.63,1.443,1.443,0,0,0-1.183.507,2.221,2.221,0,0,0-.416,1.443,2.076,2.076,0,0,0,.39,1.371,1.307,1.307,0,0,0,1.053.462A2.037,2.037,0,0,0,395.369,146.852Z"/><path class="cls-9" d="M399.426,150.635a.871.871,0,0,1,.259.637,2.3,2.3,0,0,1-.234.923l-.871,1.989h-.858l.52-2.158a.928.928,0,0,1-.363-.754.886.886,0,0,1,.9-.9A.883.883,0,0,1,399.426,150.635Z"/><path class="cls-9" d="M406,144.35a7.955,7.955,0,0,1,0,6.675,2.628,2.628,0,0,1-4.356,0,7.955,7.955,0,0,1,0-6.675,2.636,2.636,0,0,1,4.356,0Zm-3.433.63a9.166,9.166,0,0,0,0,5.415,1.354,1.354,0,0,0,2.5,0,9,9,0,0,0,0-5.409,1.355,1.355,0,0,0-2.5-.006Z"/><path class="cls-9" d="M415.11,143.8a2.459,2.459,0,0,1,0,3.2,2.233,2.233,0,0,1-3.042,0,2.455,2.455,0,0,1,0-3.2,2.233,2.233,0,0,1,3.042,0Zm-2.34.6a2.185,2.185,0,0,0,0,1.995.873.873,0,0,0,.813.4q1.051,0,1.053-1.391a1.936,1.936,0,0,0-.235-.995,1.043,1.043,0,0,0-1.631-.006Zm6.09-1.612.832.546-6.018,9.1-.832-.546Zm1.6,5.6a2.478,2.478,0,0,1,0,3.2,2.242,2.242,0,0,1-3.049,0,2.455,2.455,0,0,1,0-3.2,2.242,2.242,0,0,1,3.049,0Zm-2.334.6a1.853,1.853,0,0,0-.24,1,1.888,1.888,0,0,0,.24.994.872.872,0,0,0,.812.4q1.053,0,1.053-1.391a1.894,1.894,0,0,0-.233-.988,1.055,1.055,0,0,0-1.632-.007Z"/><path class="cls-9" d="M537.844,194.237v8.7h-1.2v-7.423l-2.028,1.235-.52-.846,2.692-1.663Z"/><path class="cls-9" d="M543.584,194.406a2.169,2.169,0,0,1,.884.805,2.1,2.1,0,0,1,.305,1.1,1.88,1.88,0,0,1-.462,1.307,2.319,2.319,0,0,1-1.228.7,2.22,2.22,0,0,1,1.417.624,2.007,2.007,0,0,1,.547,1.483,2.617,2.617,0,0,1-.365,1.365,2.5,2.5,0,0,1-1.04.955,3.384,3.384,0,0,1-1.56.344,3.566,3.566,0,0,1-1.456-.292,3.183,3.183,0,0,1-1.157-.878l.715-.662a3.019,3.019,0,0,0,.877.65,2.318,2.318,0,0,0,.982.208,1.751,1.751,0,0,0,1.287-.462,1.663,1.663,0,0,0,.469-1.241,1.458,1.458,0,0,0-.443-1.209,2.033,2.033,0,0,0-1.287-.351h-.65l.143-.923h.443a1.619,1.619,0,0,0,1.124-.4,1.439,1.439,0,0,0,.448-1.13,1.25,1.25,0,0,0-.39-.969,1.5,1.5,0,0,0-1.052-.358,2.331,2.331,0,0,0-.93.182,3.044,3.044,0,0,0-.864.6l-.624-.715a3.552,3.552,0,0,1,2.482-1.028A2.99,2.99,0,0,1,543.584,194.406Z"/><path class="cls-9" d="M547.959,201.542a.87.87,0,0,1,.26.638,2.3,2.3,0,0,1-.235.923l-.871,1.989h-.857l.519-2.158a.931.931,0,0,1-.266-.326.941.941,0,0,1-.1-.428.886.886,0,0,1,.9-.9A.886.886,0,0,1,547.959,201.542Z"/><path class="cls-9" d="M554.262,194.237v.9l-3.25,7.929-1.091-.363,3.132-7.489h-3.847v-.974Z"/><path class="cls-9" d="M562.316,194.705a2.459,2.459,0,0,1,0,3.2,2.236,2.236,0,0,1-3.042,0,2.455,2.455,0,0,1,0-3.2,2.231,2.231,0,0,1,3.042,0Zm-2.34.6a2.185,2.185,0,0,0,0,2,.875.875,0,0,0,.813.4q1.052,0,1.053-1.391a1.933,1.933,0,0,0-.235-1,1.043,1.043,0,0,0-1.631-.006Zm6.09-1.613.832.547-6.018,9.1-.832-.545Zm1.6,5.6a2.479,2.479,0,0,1,0,3.2,2.245,2.245,0,0,1-3.049,0,2.457,2.457,0,0,1,0-3.2,2.245,2.245,0,0,1,3.049,0Zm-2.334.6a1.851,1.851,0,0,0-.24,1,1.888,1.888,0,0,0,.24.994.874.874,0,0,0,.812.4q1.053,0,1.053-1.391a1.894,1.894,0,0,0-.233-.988,1.055,1.055,0,0,0-1.632-.007Z"/><path class="cls-9" d="M451.513,194.237v8.7h-1.2v-7.423l-2.028,1.235-.52-.846,2.692-1.663Z"/><path class="cls-9" d="M458.325,194.237v.9l-3.25,7.929-1.092-.363,3.133-7.489h-3.848v-.974Z"/><path class="cls-9" d="M460.912,201.542a.87.87,0,0,1,.26.638,2.286,2.286,0,0,1-.235.923l-.871,1.989h-.857l.519-2.158a.931.931,0,0,1-.266-.326.941.941,0,0,1-.1-.428.886.886,0,0,1,.9-.9A.886.886,0,0,1,460.912,201.542Z"/><path class="cls-9" d="M468.413,200.606a2.227,2.227,0,0,1-.384,1.281,2.556,2.556,0,0,1-1.072.884,4.026,4.026,0,0,1-3.12.007,2.456,2.456,0,0,1-1.047-.871,2.263,2.263,0,0,1-.37-1.274,2.1,2.1,0,0,1,.435-1.352,3.22,3.22,0,0,1,1.281-.91,2.61,2.61,0,0,1-1.021-.852,2.079,2.079,0,0,1-.331-1.176,1.993,1.993,0,0,1,.37-1.209,2.3,2.3,0,0,1,.976-.767,3.223,3.223,0,0,1,1.293-.261,3.343,3.343,0,0,1,1.28.248,2.287,2.287,0,0,1,.981.747,1.937,1.937,0,0,1,.377,1.2,1.768,1.768,0,0,1-.363,1.117,3.222,3.222,0,0,1-1.118.846A2.476,2.476,0,0,1,468.413,200.606Zm-1.723,1.119a1.4,1.4,0,0,0,.475-1.1,1.569,1.569,0,0,0-.182-.787,1.6,1.6,0,0,0-.585-.559,6.091,6.091,0,0,0-1.132-.487l-.324-.118a2.315,2.315,0,0,0-.963.787,2.1,2.1,0,0,0-.311,1.177,1.377,1.377,0,0,0,.468,1.111,1.9,1.9,0,0,0,1.274.4A1.874,1.874,0,0,0,466.69,201.725Zm-2.34-6.371a1.268,1.268,0,0,0-.4,1,1.176,1.176,0,0,0,.384.95,3.714,3.714,0,0,0,1.228.6l.221.077a2.566,2.566,0,0,0,.845-.714,1.59,1.59,0,0,0,.259-.923,1.285,1.285,0,0,0-.382-.975,1.517,1.517,0,0,0-1.086-.365A1.565,1.565,0,0,0,464.35,195.354Z"/><path class="cls-9" d="M476.662,194.705a2.459,2.459,0,0,1,0,3.2,2.236,2.236,0,0,1-3.042,0,2.455,2.455,0,0,1,0-3.2,2.231,2.231,0,0,1,3.042,0Zm-2.34.6a2.185,2.185,0,0,0,0,2,.875.875,0,0,0,.813.4q1.052,0,1.052-1.391a1.933,1.933,0,0,0-.234-1,1.043,1.043,0,0,0-1.631-.006Zm6.09-1.613.832.547-6.019,9.1-.832-.545Zm1.6,5.6a2.479,2.479,0,0,1,0,3.2,2.244,2.244,0,0,1-3.048,0,2.457,2.457,0,0,1,0-3.2,2.244,2.244,0,0,1,3.048,0Zm-2.333.6a1.842,1.842,0,0,0-.241,1,1.879,1.879,0,0,0,.241.994.874.874,0,0,0,.812.4q1.053,0,1.053-1.391a1.884,1.884,0,0,0-.234-.988,1.054,1.054,0,0,0-1.631-.007Z"/><path class="cls-9" d="M271.368,199.839v.95h-1.132v2.145H269.08v-2.145h-3.719v-.858l2.613-5.825,1,.416-2.352,5.317h2.47l.1-2.339h1.039v2.339Z"/><path class="cls-9" d="M278.336,200.606a2.227,2.227,0,0,1-.384,1.281,2.556,2.556,0,0,1-1.072.884,4.026,4.026,0,0,1-3.12.007,2.45,2.45,0,0,1-1.047-.871,2.263,2.263,0,0,1-.37-1.274,2.1,2.1,0,0,1,.435-1.352,3.223,3.223,0,0,1,1.28-.91,2.606,2.606,0,0,1-1.02-.852,2.079,2.079,0,0,1-.331-1.176,1.993,1.993,0,0,1,.37-1.209,2.3,2.3,0,0,1,.976-.767,3.218,3.218,0,0,1,1.292-.261,3.348,3.348,0,0,1,1.281.248,2.287,2.287,0,0,1,.981.747,1.937,1.937,0,0,1,.377,1.2,1.768,1.768,0,0,1-.363,1.117,3.222,3.222,0,0,1-1.118.846A2.477,2.477,0,0,1,278.336,200.606Zm-1.723,1.119a1.4,1.4,0,0,0,.475-1.1,1.569,1.569,0,0,0-.182-.787,1.6,1.6,0,0,0-.585-.559,6.091,6.091,0,0,0-1.132-.487l-.324-.118a2.308,2.308,0,0,0-.963.787,2.1,2.1,0,0,0-.311,1.177,1.379,1.379,0,0,0,.467,1.111,1.908,1.908,0,0,0,1.275.4A1.874,1.874,0,0,0,276.613,201.725Zm-2.34-6.371a1.268,1.268,0,0,0-.4,1,1.176,1.176,0,0,0,.384.95,3.7,3.7,0,0,0,1.228.6l.221.077a2.561,2.561,0,0,0,.844-.714,1.583,1.583,0,0,0,.26-.923,1.282,1.282,0,0,0-.383-.975,1.514,1.514,0,0,0-1.086-.365A1.564,1.564,0,0,0,274.273,195.354Z"/><path class="cls-9" d="M281.118,201.542a.87.87,0,0,1,.26.638,2.286,2.286,0,0,1-.235.923l-.871,1.989h-.857l.519-2.158a.931.931,0,0,1-.266-.326.941.941,0,0,1-.1-.428.886.886,0,0,1,.9-.9A.885.885,0,0,1,281.118,201.542Z"/><path class="cls-9" d="M287.123,197.525a2.23,2.23,0,0,1,.871.936,3.259,3.259,0,0,1,.325,1.521,3.469,3.469,0,0,1-.371,1.632,2.711,2.711,0,0,1-1,1.092,2.641,2.641,0,0,1-1.4.383,2.427,2.427,0,0,1-2.223-1.124,5.864,5.864,0,0,1-.7-3.113,7.172,7.172,0,0,1,.4-2.49,3.725,3.725,0,0,1,1.138-1.664,2.73,2.73,0,0,1,1.755-.592,3.179,3.179,0,0,1,1.794.534l-.468.793a2.5,2.5,0,0,0-1.339-.377,1.665,1.665,0,0,0-1.482.9,4.915,4.915,0,0,0-.6,2.4,2.458,2.458,0,0,1,2.093-1.144A2.394,2.394,0,0,1,287.123,197.525Zm-.416,4.043a2.643,2.643,0,0,0,.4-1.547q0-1.858-1.4-1.858a1.867,1.867,0,0,0-1.053.318,2.707,2.707,0,0,0-.819.877,4.435,4.435,0,0,0,.448,2.106,1.377,1.377,0,0,0,1.268.677A1.328,1.328,0,0,0,286.707,201.568Z"/><path class="cls-9" d="M296.5,194.705a2.459,2.459,0,0,1,0,3.2,2.059,2.059,0,0,1-1.528.6,2.036,2.036,0,0,1-1.514-.6,2.455,2.455,0,0,1,0-3.2,2.034,2.034,0,0,1,1.514-.6A2.057,2.057,0,0,1,296.5,194.705Zm-2.34.6a2.185,2.185,0,0,0,0,2,.874.874,0,0,0,.812.4q1.053,0,1.053-1.391a1.933,1.933,0,0,0-.234-1,1.043,1.043,0,0,0-1.631-.006Zm6.09-1.613.832.547-6.019,9.1-.832-.545Zm1.6,5.6a2.479,2.479,0,0,1,0,3.2,2.035,2.035,0,0,1-1.521.6,2.059,2.059,0,0,1-1.528-.6,2.46,2.46,0,0,1,0-3.2,2.059,2.059,0,0,1,1.528-.6A2.035,2.035,0,0,1,301.852,199.293Zm-2.334.6a1.851,1.851,0,0,0-.24,1,1.888,1.888,0,0,0,.24.994.876.876,0,0,0,.813.4q1.053,0,1.053-1.391a1.894,1.894,0,0,0-.234-.988,1.055,1.055,0,0,0-1.632-.007Z"/><path class="cls-10" d="M329.253,231.482H325.86v2.561a3.025,3.025,0,0,1,1.391-.338,2.324,2.324,0,0,1,1.794.734,2.876,2.876,0,0,1,.675,2.022,3.066,3.066,0,0,1-.376,1.528,2.633,2.633,0,0,1-1.06,1.04,3.257,3.257,0,0,1-1.579.37,3.436,3.436,0,0,1-1.417-.279,3.767,3.767,0,0,1-1.157-.826l.7-.689a2.962,2.962,0,0,0,.858.618,2.389,2.389,0,0,0,1,.2A1.68,1.68,0,0,0,328,237.9a2.1,2.1,0,0,0,.474-1.469,1.89,1.89,0,0,0-.428-1.378,1.565,1.565,0,0,0-1.158-.429,2.557,2.557,0,0,0-.624.072,3.252,3.252,0,0,0-.61.227h-.936v-4.381h4.706Z"/><path class="cls-10" d="M336.11,231.567a7.955,7.955,0,0,1,0,6.675,2.628,2.628,0,0,1-4.355,0,7.945,7.945,0,0,1,0-6.675,2.635,2.635,0,0,1,4.355,0Zm-3.432.63a9.145,9.145,0,0,0,0,5.415,1.353,1.353,0,0,0,2.5,0,9,9,0,0,0,0-5.408,1.354,1.354,0,0,0-2.5-.007Z"/><path class="cls-10" d="M345.223,231.014a2.459,2.459,0,0,1,0,3.2,2.233,2.233,0,0,1-3.042,0,2.459,2.459,0,0,1,0-3.2,2.233,2.233,0,0,1,3.042,0Zm-2.339.6a2.177,2.177,0,0,0,0,2,.871.871,0,0,0,.812.4q1.051,0,1.053-1.391a1.92,1.92,0,0,0-.235-.994,1.041,1.041,0,0,0-1.63-.007ZM348.973,230l.832.546-6.018,9.1-.832-.546Zm1.6,5.6a2.478,2.478,0,0,1,0,3.2,2.034,2.034,0,0,1-1.521.6,2.056,2.056,0,0,1-1.528-.6,2.455,2.455,0,0,1,0-3.2,2.06,2.06,0,0,1,1.528-.6A2.038,2.038,0,0,1,350.573,235.6Zm-2.334.6a1.847,1.847,0,0,0-.24.994,1.892,1.892,0,0,0,.24,1,.875.875,0,0,0,.813.4q1.053,0,1.052-1.391a1.9,1.9,0,0,0-.233-.988,1.054,1.054,0,0,0-1.632-.006Z"/><path class="cls-10" d="M466.451,230.546v.9l-3.25,7.93-1.092-.364,3.133-7.488h-3.848v-.975Z"/><path class="cls-10" d="M472.106,231.482h-3.392v2.561a3.021,3.021,0,0,1,1.39-.338,2.324,2.324,0,0,1,1.794.734,2.876,2.876,0,0,1,.676,2.022,3.056,3.056,0,0,1-.377,1.528,2.627,2.627,0,0,1-1.06,1.04,3.257,3.257,0,0,1-1.579.37,3.436,3.436,0,0,1-1.417-.279,3.779,3.779,0,0,1-1.157-.826l.7-.689a2.979,2.979,0,0,0,.859.618,2.389,2.389,0,0,0,1,.2,1.677,1.677,0,0,0,1.305-.52,2.1,2.1,0,0,0,.475-1.469,1.89,1.89,0,0,0-.429-1.378,1.564,1.564,0,0,0-1.157-.429,2.545,2.545,0,0,0-.624.072,3.227,3.227,0,0,0-.61.227h-.937v-4.381h4.706Z"/><path class="cls-10" d="M480.823,231.014a2.459,2.459,0,0,1,0,3.2,2.233,2.233,0,0,1-3.042,0,2.455,2.455,0,0,1,0-3.2,2.233,2.233,0,0,1,3.042,0Zm-2.34.6a2.185,2.185,0,0,0,0,2,.873.873,0,0,0,.813.4q1.052,0,1.052-1.391a1.929,1.929,0,0,0-.234-.994,1.042,1.042,0,0,0-1.631-.007Zm6.09-1.612.832.546-6.019,9.1-.832-.546Zm1.6,5.6a2.478,2.478,0,0,1,0,3.2,2.242,2.242,0,0,1-3.049,0,2.455,2.455,0,0,1,0-3.2,2.242,2.242,0,0,1,3.049,0Zm-2.334.6a1.838,1.838,0,0,0-.241.994,1.883,1.883,0,0,0,.241,1,.873.873,0,0,0,.812.4q1.053,0,1.053-1.391a1.887,1.887,0,0,0-.234-.988,1.053,1.053,0,0,0-1.631-.006Z"/><path class="cls-10" d="M587.005,230.546v8.7h-1.2V231.82l-2.028,1.235-.519-.845,2.691-1.664Z"/><path class="cls-10" d="M594.239,231.567a7.955,7.955,0,0,1,0,6.675,2.628,2.628,0,0,1-4.355,0,7.945,7.945,0,0,1,0-6.675,2.635,2.635,0,0,1,4.355,0Zm-3.433.63a9.166,9.166,0,0,0,0,5.415,1.354,1.354,0,0,0,2.5,0,9,9,0,0,0,0-5.408,1.355,1.355,0,0,0-2.5-.007Z"/><path class="cls-10" d="M601.493,231.567a7.955,7.955,0,0,1,0,6.675,2.628,2.628,0,0,1-4.356,0,7.955,7.955,0,0,1,0-6.675,2.636,2.636,0,0,1,4.356,0Zm-3.433.63a9.166,9.166,0,0,0,0,5.415,1.354,1.354,0,0,0,2.5,0,9,9,0,0,0,0-5.408,1.355,1.355,0,0,0-2.5-.007Z"/><path class="cls-10" d="M610.606,231.014a2.459,2.459,0,0,1,0,3.2,2.233,2.233,0,0,1-3.042,0,2.455,2.455,0,0,1,0-3.2,2.233,2.233,0,0,1,3.042,0Zm-2.34.6a2.185,2.185,0,0,0,0,2,.874.874,0,0,0,.813.4q1.052,0,1.053-1.391a1.929,1.929,0,0,0-.235-.994.869.869,0,0,0-.818-.4A.879.879,0,0,0,608.266,231.612Zm6.09-1.612.832.546-6.018,9.1-.832-.546Zm1.6,5.6a2.478,2.478,0,0,1,0,3.2,2.242,2.242,0,0,1-3.049,0,2.455,2.455,0,0,1,0-3.2,2.242,2.242,0,0,1,3.049,0Zm-2.334.6a1.847,1.847,0,0,0-.24.994,1.892,1.892,0,0,0,.24,1,.873.873,0,0,0,.812.4q1.053,0,1.053-1.391a1.9,1.9,0,0,0-.233-.988,1.054,1.054,0,0,0-1.632-.006Z"/><path class="cls-10" d="M192.1,230.728a2.272,2.272,0,0,1,1.242,2.067,3.412,3.412,0,0,1-.358,1.521,7.35,7.35,0,0,1-1.1,1.573q-.741.846-2.249,2.353h3.914l-.144,1h-5.135v-.949q1.742-1.806,2.47-2.646a7.41,7.41,0,0,0,1.04-1.462,2.952,2.952,0,0,0,.312-1.339,1.334,1.334,0,0,0-1.429-1.443,1.922,1.922,0,0,0-.937.221,3.418,3.418,0,0,0-.857.728l-.78-.624a3.589,3.589,0,0,1,1.182-.988,3.209,3.209,0,0,1,1.456-.325A2.9,2.9,0,0,1,192.1,230.728Z"/><path class="cls-10" d="M199.66,231.482h-3.393v2.561a3.028,3.028,0,0,1,1.391-.338,2.324,2.324,0,0,1,1.794.734,2.876,2.876,0,0,1,.676,2.022,3.056,3.056,0,0,1-.377,1.528,2.633,2.633,0,0,1-1.06,1.04,3.257,3.257,0,0,1-1.579.37,3.436,3.436,0,0,1-1.417-.279,3.767,3.767,0,0,1-1.157-.826l.7-.689a2.962,2.962,0,0,0,.858.618,2.389,2.389,0,0,0,1,.2,1.678,1.678,0,0,0,1.306-.52,2.1,2.1,0,0,0,.475-1.469,1.89,1.89,0,0,0-.429-1.378,1.564,1.564,0,0,0-1.157-.429,2.545,2.545,0,0,0-.624.072,3.235,3.235,0,0,0-.611.227h-.936v-4.381h4.706Z"/><path class="cls-10" d="M208.377,231.014a2.459,2.459,0,0,1,0,3.2,2.056,2.056,0,0,1-1.528.6,2.033,2.033,0,0,1-1.514-.6,2.455,2.455,0,0,1,0-3.2,2.037,2.037,0,0,1,1.514-.6A2.06,2.06,0,0,1,208.377,231.014Zm-2.34.6a2.185,2.185,0,0,0,0,2,.872.872,0,0,0,.812.4q1.053,0,1.053-1.391a1.929,1.929,0,0,0-.234-.994,1.042,1.042,0,0,0-1.631-.007Zm6.09-1.612.832.546-6.019,9.1-.832-.546Zm1.6,5.6a2.478,2.478,0,0,1,0,3.2,2.241,2.241,0,0,1-3.048,0,2.455,2.455,0,0,1,0-3.2,2.241,2.241,0,0,1,3.048,0Zm-2.334.6a1.847,1.847,0,0,0-.24.994,1.892,1.892,0,0,0,.24,1,.876.876,0,0,0,.813.4q1.053,0,1.053-1.391a1.9,1.9,0,0,0-.234-.988,1.054,1.054,0,0,0-1.632-.006Z"/><path class="cls-10" d="M67.809,231.567a7.945,7.945,0,0,1,0,6.675,2.628,2.628,0,0,1-4.355,0,7.945,7.945,0,0,1,0-6.675,2.635,2.635,0,0,1,4.355,0Zm-3.432.63a9.166,9.166,0,0,0,0,5.415,1.354,1.354,0,0,0,2.5,0,9,9,0,0,0,0-5.408,1.355,1.355,0,0,0-2.5-.007Z"/><path class="cls-10" d="M76.923,231.014a2.462,2.462,0,0,1,0,3.2,2.056,2.056,0,0,1-1.528.6,2.033,2.033,0,0,1-1.514-.6,2.455,2.455,0,0,1,0-3.2,2.037,2.037,0,0,1,1.514-.6A2.06,2.06,0,0,1,76.923,231.014Zm-2.34.6a2.185,2.185,0,0,0,0,2,.871.871,0,0,0,.812.4q1.052,0,1.053-1.391a1.929,1.929,0,0,0-.234-.994,1.042,1.042,0,0,0-1.631-.007ZM80.673,230l.832.546-6.019,9.1-.832-.546Zm1.6,5.6a2.478,2.478,0,0,1,0,3.2,2.032,2.032,0,0,1-1.521.6,2.056,2.056,0,0,1-1.528-.6,2.459,2.459,0,0,1,0-3.2,2.06,2.06,0,0,1,1.528-.6A2.036,2.036,0,0,1,82.272,235.6Zm-2.334.6a1.847,1.847,0,0,0-.24.994,1.892,1.892,0,0,0,.24,1,.875.875,0,0,0,.813.4q1.053,0,1.052-1.391a1.9,1.9,0,0,0-.233-.988,1.054,1.054,0,0,0-1.632-.006Z"/><path class="cls-9" d="M95.227,194.237v8.7h-1.2v-7.423L92,196.746l-.52-.846,2.692-1.663Z"/><path class="cls-9" d="M102.117,195.172H98.724v2.561a3.027,3.027,0,0,1,1.391-.337,2.324,2.324,0,0,1,1.794.734,2.874,2.874,0,0,1,.676,2.021,3.05,3.05,0,0,1-.377,1.528,2.633,2.633,0,0,1-1.06,1.04,3.257,3.257,0,0,1-1.579.37,3.42,3.42,0,0,1-1.417-.279A3.75,3.75,0,0,1,97,201.984l.7-.689a2.956,2.956,0,0,0,.858.618,2.389,2.389,0,0,0,1,.2,1.682,1.682,0,0,0,1.306-.52,2.106,2.106,0,0,0,.475-1.47,1.887,1.887,0,0,0-.429-1.377,1.561,1.561,0,0,0-1.157-.43,2.594,2.594,0,0,0-.624.072,3.243,3.243,0,0,0-.611.228H97.58v-4.381h4.706Z"/><path class="cls-9" d="M105.367,201.542a.87.87,0,0,1,.26.638,2.286,2.286,0,0,1-.235.923l-.871,1.989h-.857l.519-2.158a.931.931,0,0,1-.266-.326.941.941,0,0,1-.1-.428.886.886,0,0,1,.9-.9A.885.885,0,0,1,105.367,201.542Z"/><path class="cls-9" d="M111.672,194.237v.9l-3.25,7.929-1.092-.363,3.133-7.489h-3.848v-.974Z"/><path class="cls-9" d="M119.725,194.705a2.459,2.459,0,0,1,0,3.2,2.236,2.236,0,0,1-3.042,0,2.459,2.459,0,0,1,0-3.2,2.231,2.231,0,0,1,3.042,0Zm-2.339.6a2.177,2.177,0,0,0,0,2,.873.873,0,0,0,.812.4q1.052,0,1.053-1.391a1.923,1.923,0,0,0-.235-1,1.042,1.042,0,0,0-1.63-.006Zm6.089-1.613.832.547-6.018,9.1-.832-.545Zm1.6,5.6a2.479,2.479,0,0,1,0,3.2,2.245,2.245,0,0,1-3.049,0,2.457,2.457,0,0,1,0-3.2,2.245,2.245,0,0,1,3.049,0Zm-2.334.6a1.851,1.851,0,0,0-.24,1,1.888,1.888,0,0,0,.24.994.875.875,0,0,0,.812.4q1.055,0,1.053-1.391a1.894,1.894,0,0,0-.233-.988,1.055,1.055,0,0,0-1.632-.007Z"/><path class="cls-9" d="M506.821,143.5a2.152,2.152,0,0,1,.884.806,2.1,2.1,0,0,1,.306,1.1,1.882,1.882,0,0,1-.462,1.306,2.316,2.316,0,0,1-1.229.7,2.207,2.207,0,0,1,1.417.624,2,2,0,0,1,.547,1.482,2.621,2.621,0,0,1-.364,1.365,2.5,2.5,0,0,1-1.04.955,3.392,3.392,0,0,1-1.561.345,3.57,3.57,0,0,1-1.456-.293,3.188,3.188,0,0,1-1.156-.877l.715-.663a3,3,0,0,0,.877.65,2.3,2.3,0,0,0,.981.208,1.753,1.753,0,0,0,1.287-.461,1.663,1.663,0,0,0,.469-1.242,1.462,1.462,0,0,0-.442-1.209,2.036,2.036,0,0,0-1.288-.351h-.65l.144-.923h.442a1.618,1.618,0,0,0,1.124-.4,1.443,1.443,0,0,0,.448-1.131,1.251,1.251,0,0,0-.389-.968,1.5,1.5,0,0,0-1.053-.358,2.331,2.331,0,0,0-.93.182,3.038,3.038,0,0,0-.864.6l-.624-.715a3.555,3.555,0,0,1,2.482-1.027A2.99,2.99,0,0,1,506.821,143.5Z"/><path class="cls-9" d="M513.308,143.5a2.152,2.152,0,0,1,.884.806,2.1,2.1,0,0,1,.306,1.1,1.877,1.877,0,0,1-.462,1.306,2.316,2.316,0,0,1-1.229.7,2.207,2.207,0,0,1,1.417.624,2,2,0,0,1,.547,1.482,2.621,2.621,0,0,1-.364,1.365,2.5,2.5,0,0,1-1.04.955,3.389,3.389,0,0,1-1.561.345,3.573,3.573,0,0,1-1.456-.293,3.188,3.188,0,0,1-1.156-.877l.715-.663a3,3,0,0,0,.877.65,2.3,2.3,0,0,0,.981.208,1.753,1.753,0,0,0,1.287-.461,1.663,1.663,0,0,0,.469-1.242,1.459,1.459,0,0,0-.442-1.209,2.035,2.035,0,0,0-1.287-.351h-.651l.144-.923h.442a1.618,1.618,0,0,0,1.124-.4,1.443,1.443,0,0,0,.449-1.131,1.248,1.248,0,0,0-.39-.968,1.5,1.5,0,0,0-1.053-.358,2.334,2.334,0,0,0-.93.182,3.038,3.038,0,0,0-.864.6l-.624-.715a3.56,3.56,0,0,1,2.483-1.027A2.982,2.982,0,0,1,513.308,143.5Z"/><path class="cls-9" d="M517.682,150.635a.868.868,0,0,1,.26.637,2.3,2.3,0,0,1-.234.923l-.871,1.989h-.858l.52-2.158a.939.939,0,0,1-.267-.325.958.958,0,0,1-.1-.429.886.886,0,0,1,.9-.9A.879.879,0,0,1,517.682,150.635Z"/><path class="cls-9" d="M522.941,143.511a2.266,2.266,0,0,1,1.241,2.067,3.414,3.414,0,0,1-.357,1.521,7.437,7.437,0,0,1-1.1,1.573q-.741.845-2.249,2.353h3.913l-.143,1h-5.135v-.949q1.742-1.806,2.47-2.646a7.41,7.41,0,0,0,1.04-1.462,2.955,2.955,0,0,0,.312-1.339,1.333,1.333,0,0,0-1.429-1.443,1.922,1.922,0,0,0-.937.221,3.4,3.4,0,0,0-.857.728l-.781-.624a3.592,3.592,0,0,1,1.183-.988,3.209,3.209,0,0,1,1.456-.325A2.9,2.9,0,0,1,522.941,143.511Z"/><path class="cls-9" d="M532.7,143.8a2.459,2.459,0,0,1,0,3.2,2.233,2.233,0,0,1-3.042,0,2.455,2.455,0,0,1,0-3.2,2.233,2.233,0,0,1,3.042,0Zm-2.34.6a2.185,2.185,0,0,0,0,1.995.873.873,0,0,0,.813.4q1.052,0,1.052-1.391A1.936,1.936,0,0,0,532,144.4a1.043,1.043,0,0,0-1.631-.006Zm6.09-1.612.832.546-6.019,9.1-.832-.546Zm1.6,5.6a2.478,2.478,0,0,1,0,3.2,2.241,2.241,0,0,1-3.048,0,2.455,2.455,0,0,1,0-3.2,2.241,2.241,0,0,1,3.048,0Zm-2.334.6a1.853,1.853,0,0,0-.24,1,1.888,1.888,0,0,0,.24.994.875.875,0,0,0,.813.4q1.053,0,1.053-1.391a1.884,1.884,0,0,0-.234-.988.876.876,0,0,0-.819-.39A.887.887,0,0,0,535.719,148.99Z"/><path class="cls-9" d="M598.511,199.839v.95h-1.132v2.145h-1.157v-2.145H592.5v-.858l2.613-5.825,1,.416-2.353,5.317h2.47l.105-2.339h1.039v2.339Z"/><path class="cls-9" d="M601.1,201.542a.87.87,0,0,1,.26.638,2.3,2.3,0,0,1-.234.923l-.871,1.989h-.858l.52-2.158a.932.932,0,0,1-.363-.754.885.885,0,0,1,.9-.9A.882.882,0,0,1,601.1,201.542Z"/><path class="cls-9" d="M604.92,194.237v8.7h-1.2v-7.423l-2.028,1.235-.519-.846,2.691-1.663Z"/><path class="cls-9" d="M184.461,143.511a2.266,2.266,0,0,1,1.241,2.067,3.4,3.4,0,0,1-.358,1.521,7.428,7.428,0,0,1-1.1,1.573q-.741.845-2.249,2.353h3.913l-.144,1h-5.134v-.949q1.742-1.806,2.469-2.646a7.368,7.368,0,0,0,1.04-1.462,2.956,2.956,0,0,0,.313-1.339,1.334,1.334,0,0,0-1.43-1.443,1.919,1.919,0,0,0-.936.221,3.4,3.4,0,0,0-.858.728l-.78-.624a3.582,3.582,0,0,1,1.183-.988,3.206,3.206,0,0,1,1.456-.325A2.9,2.9,0,0,1,184.461,143.511Z"/><path class="cls-9" d="M191.889,144.1a3.884,3.884,0,0,1,.715,2.476,7.173,7.173,0,0,1-.48,2.866,3.906,3.906,0,0,1-1.47,1.729,10.193,10.193,0,0,1-2.678,1.138l-.272-.9a6.621,6.621,0,0,0,2.671-1.339,3.1,3.1,0,0,0,1-2.249,2.26,2.26,0,0,1-.807.754,2.292,2.292,0,0,1-1.143.286,2.243,2.243,0,0,1-1.223-.345,2.4,2.4,0,0,1-.864-.975,3.235,3.235,0,0,1-.319-1.475,3,3,0,0,1,.377-1.534,2.576,2.576,0,0,1,1.008-1,2.872,2.872,0,0,1,1.4-.344A2.506,2.506,0,0,1,191.889,144.1Zm-.494,2.749a4.03,4.03,0,0,0-.357-2.074,1.319,1.319,0,0,0-1.216-.63,1.445,1.445,0,0,0-1.183.507,2.221,2.221,0,0,0-.416,1.443,2.076,2.076,0,0,0,.39,1.371,1.309,1.309,0,0,0,1.054.462A2.036,2.036,0,0,0,191.4,146.852Z"/><path class="cls-9" d="M195.452,150.635a.868.868,0,0,1,.26.637,2.282,2.282,0,0,1-.235.923l-.871,1.989h-.857l.519-2.158a.936.936,0,0,1-.363-.754.888.888,0,0,1,.9-.9A.882.882,0,0,1,195.452,150.635Z"/><path class="cls-9" d="M201.51,144.1a3.89,3.89,0,0,1,.714,2.476,7.173,7.173,0,0,1-.48,2.866,3.906,3.906,0,0,1-1.47,1.729,10.193,10.193,0,0,1-2.678,1.138l-.272-.9A6.621,6.621,0,0,0,200,150.076a3.1,3.1,0,0,0,1-2.249,2.26,2.26,0,0,1-.807.754,2.292,2.292,0,0,1-1.143.286,2.243,2.243,0,0,1-1.223-.345,2.4,2.4,0,0,1-.864-.975,3.235,3.235,0,0,1-.318-1.475,3.015,3.015,0,0,1,.376-1.534,2.576,2.576,0,0,1,1.008-1,2.872,2.872,0,0,1,1.4-.344A2.509,2.509,0,0,1,201.51,144.1Zm-.5,2.749a4.03,4.03,0,0,0-.357-2.074,1.319,1.319,0,0,0-1.216-.63,1.441,1.441,0,0,0-1.182.507,2.216,2.216,0,0,0-.416,1.443,2.076,2.076,0,0,0,.389,1.371,1.309,1.309,0,0,0,1.054.462A2.036,2.036,0,0,0,201.015,146.852Z"/><path class="cls-9" d="M210.538,143.8a2.459,2.459,0,0,1,0,3.2,2.233,2.233,0,0,1-3.042,0,2.455,2.455,0,0,1,0-3.2,2.233,2.233,0,0,1,3.042,0Zm-2.34.6a2.185,2.185,0,0,0,0,1.995.873.873,0,0,0,.813.4q1.052,0,1.052-1.391a1.936,1.936,0,0,0-.234-.995,1.043,1.043,0,0,0-1.631-.006Zm6.09-1.612.832.546-6.019,9.1-.832-.546Zm1.6,5.6a2.478,2.478,0,0,1,0,3.2,2.241,2.241,0,0,1-3.048,0,2.455,2.455,0,0,1,0-3.2,2.241,2.241,0,0,1,3.048,0Zm-2.334.6a1.853,1.853,0,0,0-.24,1,1.888,1.888,0,0,0,.24.994.875.875,0,0,0,.813.4q1.053,0,1.053-1.391a1.884,1.884,0,0,0-.234-.988.876.876,0,0,0-.819-.39A.887.887,0,0,0,213.553,148.99Z"/><path class="cls-9" d="M316.5,143.329v8.7h-1.2V144.6l-2.028,1.235-.519-.845,2.691-1.664Z"/><path class="cls-9" d="M324.511,149.7a2.221,2.221,0,0,1-.383,1.28,2.559,2.559,0,0,1-1.073.884,4.015,4.015,0,0,1-3.12.007,2.455,2.455,0,0,1-1.047-.871,2.261,2.261,0,0,1-.37-1.274,2.1,2.1,0,0,1,.436-1.352,3.233,3.233,0,0,1,1.28-.91,2.6,2.6,0,0,1-1.02-.852,2.077,2.077,0,0,1-.331-1.176,1.993,1.993,0,0,1,.37-1.209,2.31,2.31,0,0,1,.975-.767,3.243,3.243,0,0,1,1.293-.26,3.351,3.351,0,0,1,1.281.247,2.287,2.287,0,0,1,.981.747,1.939,1.939,0,0,1,.377,1.2,1.769,1.769,0,0,1-.363,1.118,3.235,3.235,0,0,1-1.119.845A2.476,2.476,0,0,1,324.511,149.7Zm-1.722,1.118a1.4,1.4,0,0,0,.474-1.105,1.572,1.572,0,0,0-.181-.787,1.612,1.612,0,0,0-.585-.559,6.151,6.151,0,0,0-1.132-.487l-.324-.117a2.307,2.307,0,0,0-.963.786,2.1,2.1,0,0,0-.312,1.177,1.378,1.378,0,0,0,.468,1.111,1.906,1.906,0,0,0,1.275.4A1.876,1.876,0,0,0,322.789,150.817Zm-2.34-6.37a1.264,1.264,0,0,0-.4,1,1.174,1.174,0,0,0,.383.949,3.691,3.691,0,0,0,1.229.6l.221.078a2.573,2.573,0,0,0,.844-.715,1.583,1.583,0,0,0,.26-.923,1.284,1.284,0,0,0-.383-.975,1.515,1.515,0,0,0-1.086-.364A1.559,1.559,0,0,0,320.449,144.447Z"/><path class="cls-9" d="M327.294,150.635a.867.867,0,0,1,.259.637,2.3,2.3,0,0,1-.234.923l-.871,1.989h-.857l.519-2.158a.936.936,0,0,1-.363-.754.888.888,0,0,1,.9-.9A.883.883,0,0,1,327.294,150.635Z"/><path class="cls-9" d="M333.806,144.265h-3.392v2.561a3.021,3.021,0,0,1,1.39-.338,2.323,2.323,0,0,1,1.794.734,2.872,2.872,0,0,1,.676,2.022,3.049,3.049,0,0,1-.377,1.527,2.633,2.633,0,0,1-1.059,1.041,3.259,3.259,0,0,1-1.579.37,3.417,3.417,0,0,1-1.417-.28,3.779,3.779,0,0,1-1.158-.825l.7-.689a2.955,2.955,0,0,0,.859.617,2.374,2.374,0,0,0,1,.2,1.68,1.68,0,0,0,1.306-.52,2.1,2.1,0,0,0,.474-1.469,1.884,1.884,0,0,0-.429-1.378,1.562,1.562,0,0,0-1.157-.429,2.608,2.608,0,0,0-.624.071,3.261,3.261,0,0,0-.61.228h-.937v-4.381h4.706Z"/><path class="cls-9" d="M342.523,143.8a2.459,2.459,0,0,1,0,3.2,2.233,2.233,0,0,1-3.042,0,2.455,2.455,0,0,1,0-3.2,2.233,2.233,0,0,1,3.042,0Zm-2.34.6a2.185,2.185,0,0,0,0,1.995.874.874,0,0,0,.813.4q1.052,0,1.053-1.391a1.936,1.936,0,0,0-.235-.995.87.87,0,0,0-.818-.4A.879.879,0,0,0,340.183,144.4Zm6.09-1.612.832.546-6.018,9.1-.832-.546Zm1.6,5.6a2.478,2.478,0,0,1,0,3.2,2.242,2.242,0,0,1-3.049,0,2.455,2.455,0,0,1,0-3.2,2.242,2.242,0,0,1,3.049,0Zm-2.334.6a1.853,1.853,0,0,0-.24,1,1.888,1.888,0,0,0,.24.994.872.872,0,0,0,.812.4q1.053,0,1.053-1.391a1.894,1.894,0,0,0-.233-.988,1.055,1.055,0,0,0-1.632-.007Z"/><path class="cls-2" d="M27.86,94.061l-.255,1.35a2.836,2.836,0,0,0-.689-.09,1.469,1.469,0,0,0-1.186.54,4.013,4.013,0,0,0-.705,1.68v4.515h-1.38V94.151h1.186l.135,1.605a3.007,3.007,0,0,1,.854-1.335,1.909,1.909,0,0,1,1.261-.45A3.2,3.2,0,0,1,27.86,94.061Z"/><path class="cls-2" d="M34.543,95.081a4.573,4.573,0,0,1,.923,3.015,5.274,5.274,0,0,1-.42,2.168,3.3,3.3,0,0,1-1.216,1.455,3.393,3.393,0,0,1-1.89.517,3.2,3.2,0,0,1-2.6-1.11,4.548,4.548,0,0,1-.929-3.015,5.24,5.24,0,0,1,.42-2.167,3.275,3.275,0,0,1,1.215-1.455,3.412,3.412,0,0,1,1.9-.518A3.179,3.179,0,0,1,34.543,95.081ZM29.9,98.111q0,3.015,2.04,3.015t2.04-3.03q0-3.015-2.025-3.015Q29.9,95.081,29.9,98.111Z"/><path class="cls-2" d="M42.275,94.151V95.2l-4.125,5.7h4.171l-.165,1.155H36.591v-1.035l4.11-5.7H36.935v-1.17Z"/><path class="cls-2" d="M49.6,94.616a2.474,2.474,0,0,1,.609,1.77v5.67H48.83V96.581a1.729,1.729,0,0,0-.322-1.185,1.222,1.222,0,0,0-.938-.345,1.779,1.779,0,0,0-1.095.36,3.813,3.813,0,0,0-.9,1.02v5.625H44.2V90.986l1.38-.15v4.41a2.8,2.8,0,0,1,2.34-1.275A2.205,2.205,0,0,1,49.6,94.616Z"/><path class="cls-2" d="M58.543,95.081a4.573,4.573,0,0,1,.923,3.015,5.274,5.274,0,0,1-.42,2.168,3.3,3.3,0,0,1-1.216,1.455,3.393,3.393,0,0,1-1.89.517,3.2,3.2,0,0,1-2.595-1.11,4.548,4.548,0,0,1-.929-3.015,5.24,5.24,0,0,1,.42-2.167,3.275,3.275,0,0,1,1.215-1.455,3.412,3.412,0,0,1,1.9-.518A3.179,3.179,0,0,1,58.543,95.081ZM53.9,98.111q0,3.015,2.04,3.015t2.04-3.03q0-3.015-2.025-3.015Q53.9,95.081,53.9,98.111Z"/><path class="cls-2" d="M67.865,90.971v11.085H66.65l-.135-1.095a2.849,2.849,0,0,1-.975.937,2.715,2.715,0,0,1-3.5-.772,5.058,5.058,0,0,1-.788-2.985,5.821,5.821,0,0,1,.375-2.16,3.351,3.351,0,0,1,1.08-1.478,2.667,2.667,0,0,1,1.65-.532,2.837,2.837,0,0,1,2.13.975v-4.14Zm-2.25,9.878a3.372,3.372,0,0,0,.87-.878V96.1a2.987,2.987,0,0,0-.833-.772,1.916,1.916,0,0,0-1-.263,1.6,1.6,0,0,0-1.417.765,4.18,4.18,0,0,0-.5,2.28,4.415,4.415,0,0,0,.465,2.28,1.482,1.482,0,0,0,1.335.75A1.946,1.946,0,0,0,65.615,100.849Z"/><path class="cls-2" d="M76.122,94.616a2.478,2.478,0,0,1,.608,1.77v5.67H75.349V96.581a1.753,1.753,0,0,0-.314-1.185,1.2,1.2,0,0,0-.93-.345,1.8,1.8,0,0,0-1.11.36,3.764,3.764,0,0,0-.9,1.035v5.61H70.715V94.151H71.9l.12,1.17a3.123,3.123,0,0,1,1.042-.99,2.691,2.691,0,0,1,1.372-.36A2.208,2.208,0,0,1,76.122,94.616Z"/><path class="cls-2" d="M85.445,98.576h-5.04a3.075,3.075,0,0,0,.66,1.92,1.914,1.914,0,0,0,1.47.615,3.215,3.215,0,0,0,1.05-.165,4.234,4.234,0,0,0,1.005-.525l.6.825a4.374,4.374,0,0,1-2.761.99,3.2,3.2,0,0,1-2.572-1.08,4.427,4.427,0,0,1-.922-2.97,5.614,5.614,0,0,1,.4-2.183,3.419,3.419,0,0,1,1.139-1.492,2.894,2.894,0,0,1,1.747-.54,2.931,2.931,0,0,1,2.416,1.035,4.425,4.425,0,0,1,.839,2.865C85.474,98.1,85.465,98.336,85.445,98.576ZM84.17,90.281l.585.675L82.73,92.651h-.915l-2.04-1.695.6-.675,1.889,1.26Zm-.06,7.185a2.922,2.922,0,0,0-.465-1.785,1.638,1.638,0,0,0-1.395-.615q-1.695,0-1.845,2.49h3.7Z"/><path class="cls-2" d="M97.145,100.924a1.01,1.01,0,0,0,.5.352l-.315.96a2.1,2.1,0,0,1-.989-.345,1.574,1.574,0,0,1-.556-.84,2.65,2.65,0,0,1-2.354,1.185,2.527,2.527,0,0,1-1.846-.66,2.307,2.307,0,0,1-.675-1.725,2.268,2.268,0,0,1,.907-1.935,4.251,4.251,0,0,1,2.574-.675H95.6v-.585a1.534,1.534,0,0,0-.405-1.2,1.829,1.829,0,0,0-1.245-.36,6.964,6.964,0,0,0-2.13.42l-.345-1.005a7.956,7.956,0,0,1,2.73-.54,2.852,2.852,0,0,1,2.085.683,2.61,2.61,0,0,1,.69,1.942v3.615A1.241,1.241,0,0,0,97.145,100.924ZM95.6,99.971V98.156H94.565q-2.19,0-2.19,1.62a1.483,1.483,0,0,0,.345,1.065,1.349,1.349,0,0,0,1.02.36A2.06,2.06,0,0,0,95.6,99.971Z"/><path class="cls-2" d="M105.222,94.616a2.474,2.474,0,0,1,.609,1.77v5.67H104.45V96.581a1.759,1.759,0,0,0-.314-1.185,1.2,1.2,0,0,0-.93-.345,1.8,1.8,0,0,0-1.111.36,3.745,3.745,0,0,0-.9,1.035v5.61h-1.38V94.151H101l.12,1.17a3.113,3.113,0,0,1,1.042-.99,2.691,2.691,0,0,1,1.372-.36A2.205,2.205,0,0,1,105.222,94.616Z"/><path class="cls-2" d="M114.163,95.081a4.573,4.573,0,0,1,.923,3.015,5.274,5.274,0,0,1-.42,2.168,3.3,3.3,0,0,1-1.216,1.455,3.393,3.393,0,0,1-1.89.517,3.2,3.2,0,0,1-2.594-1.11,4.543,4.543,0,0,1-.93-3.015,5.256,5.256,0,0,1,.42-2.167,3.275,3.275,0,0,1,1.215-1.455,3.412,3.412,0,0,1,1.9-.518A3.179,3.179,0,0,1,114.163,95.081Zm-4.643,3.03q0,3.015,2.04,3.015t2.04-3.03q0-3.015-2.025-3.015Q109.52,95.081,109.52,98.111Z"/><rect class="cls-2" x="4.22" y="92.056" width="10" height="10"/><path class="cls-6" d="M531.307,94.061l-.254,1.35a2.851,2.851,0,0,0-.69-.09,1.466,1.466,0,0,0-1.185.54,4.012,4.012,0,0,0-.706,1.68v4.515h-1.379V94.151h1.185l.135,1.605a3.007,3.007,0,0,1,.854-1.335,1.913,1.913,0,0,1,1.261-.45A3.2,3.2,0,0,1,531.307,94.061Z"/><path class="cls-6" d="M537.99,95.081a4.573,4.573,0,0,1,.923,3.015,5.274,5.274,0,0,1-.42,2.168,3.3,3.3,0,0,1-1.216,1.455,3.393,3.393,0,0,1-1.89.517,3.2,3.2,0,0,1-2.594-1.11,4.548,4.548,0,0,1-.93-3.015,5.256,5.256,0,0,1,.42-2.167,3.282,3.282,0,0,1,1.215-1.455,3.412,3.412,0,0,1,1.9-.518A3.179,3.179,0,0,1,537.99,95.081Zm-4.643,3.03q0,3.015,2.04,3.015t2.041-3.03q0-3.015-2.026-3.015Q533.347,95.081,533.347,98.111Z"/><path class="cls-6" d="M545.722,94.151V95.2l-4.125,5.7h4.171l-.165,1.155h-5.565v-1.035l4.11-5.7h-3.765v-1.17Z"/><path class="cls-6" d="M553.05,94.616a2.478,2.478,0,0,1,.608,1.77v5.67h-1.381V96.581a1.724,1.724,0,0,0-.322-1.185,1.221,1.221,0,0,0-.938-.345,1.774,1.774,0,0,0-1.094.36,3.815,3.815,0,0,0-.9,1.02v5.625h-1.38V90.986l1.38-.15v4.41a2.8,2.8,0,0,1,2.34-1.275A2.209,2.209,0,0,1,553.05,94.616Z"/><path class="cls-6" d="M561.99,95.081a4.573,4.573,0,0,1,.923,3.015,5.274,5.274,0,0,1-.42,2.168,3.3,3.3,0,0,1-1.216,1.455,3.393,3.393,0,0,1-1.89.517,3.2,3.2,0,0,1-2.594-1.11,4.548,4.548,0,0,1-.93-3.015,5.256,5.256,0,0,1,.42-2.167,3.282,3.282,0,0,1,1.215-1.455,3.412,3.412,0,0,1,1.9-.518A3.179,3.179,0,0,1,561.99,95.081Zm-4.643,3.03q0,3.015,2.04,3.015t2.041-3.03q0-3.015-2.026-3.015Q557.347,95.081,557.347,98.111Z"/><path class="cls-6" d="M571.312,90.971v11.085H570.1l-.134-1.095a2.852,2.852,0,0,1-.976.937,2.715,2.715,0,0,1-3.5-.772,5.065,5.065,0,0,1-.788-2.985,5.821,5.821,0,0,1,.375-2.16,3.351,3.351,0,0,1,1.08-1.478,2.67,2.67,0,0,1,1.651-.532,2.837,2.837,0,0,1,2.129.975v-4.14Zm-2.25,9.878a3.372,3.372,0,0,0,.87-.878V96.1a2.973,2.973,0,0,0-.833-.772,1.916,1.916,0,0,0-1-.263,1.6,1.6,0,0,0-1.417.765,4.18,4.18,0,0,0-.5,2.28,4.425,4.425,0,0,0,.465,2.28,1.482,1.482,0,0,0,1.335.75A1.946,1.946,0,0,0,569.062,100.849Z"/><path class="cls-6" d="M579.569,94.616a2.479,2.479,0,0,1,.609,1.77v5.67H578.8V96.581a1.753,1.753,0,0,0-.315-1.185,1.2,1.2,0,0,0-.929-.345,1.8,1.8,0,0,0-1.111.36,3.745,3.745,0,0,0-.9,1.035v5.61h-1.38V94.151h1.185l.121,1.17a3.1,3.1,0,0,1,1.042-.99,2.691,2.691,0,0,1,1.372-.36A2.207,2.207,0,0,1,579.569,94.616Z"/><path class="cls-6" d="M588.892,98.576h-5.04a3.081,3.081,0,0,0,.66,1.92,1.915,1.915,0,0,0,1.47.615,3.211,3.211,0,0,0,1.05-.165,4.234,4.234,0,0,0,1-.525l.6.825a4.369,4.369,0,0,1-2.76.99,3.2,3.2,0,0,1-2.573-1.08,4.427,4.427,0,0,1-.921-2.97,5.614,5.614,0,0,1,.4-2.183,3.429,3.429,0,0,1,1.14-1.492,2.89,2.89,0,0,1,1.747-.54,2.929,2.929,0,0,1,2.415,1.035,4.425,4.425,0,0,1,.84,2.865Q588.922,98.216,588.892,98.576Zm-1.275-8.295.585.675-2.024,1.695h-.916l-2.04-1.695.6-.675,1.89,1.26Zm-.06,7.185a2.929,2.929,0,0,0-.464-1.785,1.641,1.641,0,0,0-1.4-.615q-1.7,0-1.845,2.49h3.705Z"/><path class="cls-6" d="M600.51,94.616a2.478,2.478,0,0,1,.608,1.77v5.67h-1.381V96.581a1.753,1.753,0,0,0-.314-1.185,1.2,1.2,0,0,0-.93-.345,1.8,1.8,0,0,0-1.11.36,3.731,3.731,0,0,0-.9,1.035v5.61H595.1V94.151h1.186l.12,1.17a3.113,3.113,0,0,1,1.042-.99,2.691,2.691,0,0,1,1.372-.36A2.209,2.209,0,0,1,600.51,94.616Z"/><path class="cls-6" d="M609.833,98.576h-5.04a3.069,3.069,0,0,0,.66,1.92,1.914,1.914,0,0,0,1.47.615,3.205,3.205,0,0,0,1.049-.165,4.2,4.2,0,0,0,1-.525l.6.825a4.374,4.374,0,0,1-2.761.99,3.2,3.2,0,0,1-2.572-1.08,4.427,4.427,0,0,1-.922-2.97,5.632,5.632,0,0,1,.4-2.183,3.429,3.429,0,0,1,1.14-1.492,2.89,2.89,0,0,1,1.747-.54,2.928,2.928,0,0,1,2.415,1.035,4.419,4.419,0,0,1,.84,2.865Q609.862,98.216,609.833,98.576Zm-1.335-1.11a2.922,2.922,0,0,0-.465-1.785,1.64,1.64,0,0,0-1.4-.615q-1.693,0-1.844,2.49H608.5Z"/><rect class="cls-6" x="507.668" y="92.056" width="10" height="10"/><path class="cls-5" d="M435.227,94.2a4.379,4.379,0,0,1,1.23.675l-.585.87a4.777,4.777,0,0,0-1.028-.51,3.18,3.18,0,0,0-1.027-.165,1.8,1.8,0,0,0-1.065.278.94.94,0,0,0-.023,1.507,4.27,4.27,0,0,0,1.328.525,4.746,4.746,0,0,1,1.972.9,1.961,1.961,0,0,1,.653,1.56,2.021,2.021,0,0,1-.908,1.785,3.848,3.848,0,0,1-2.212.615,4.373,4.373,0,0,1-2.985-1.035l.735-.84a3.579,3.579,0,0,0,2.22.765,2.108,2.108,0,0,0,1.237-.322,1.02,1.02,0,0,0,.458-.878,1.16,1.16,0,0,0-.165-.653,1.352,1.352,0,0,0-.57-.434,7.967,7.967,0,0,0-1.185-.4,4.046,4.046,0,0,1-1.823-.885,1.9,1.9,0,0,1-.562-1.41,1.848,1.848,0,0,1,.368-1.117,2.381,2.381,0,0,1,1.019-.78,3.708,3.708,0,0,1,1.463-.278A4.4,4.4,0,0,1,435.227,94.2Z"/><path class="cls-5" d="M444.482,95.051a5.554,5.554,0,0,1,.7,3.045,5.071,5.071,0,0,1-.81,3,2.649,2.649,0,0,1-2.3,1.14,2.551,2.551,0,0,1-2.071-.9v3.75l-1.379.165v-11.1h1.185l.105,1.065a3.033,3.033,0,0,1,1.049-.923,2.758,2.758,0,0,1,1.29-.322A2.462,2.462,0,0,1,444.482,95.051ZM443.7,98.1q0-3.03-1.785-3.03a1.788,1.788,0,0,0-1.066.345,3.423,3.423,0,0,0-.84.885v3.855a2.1,2.1,0,0,0,.75.713,2.024,2.024,0,0,0,.991.247Q443.7,101.111,443.7,98.1Z"/><path class="cls-5" d="M449.417,90.041l.615,1.155-3.18,1.29-.42-.735Zm-.495,4.11v7.905h-1.38V94.151Z"/><path class="cls-5" d="M455.372,94.2a4.361,4.361,0,0,1,1.229.675l-.585.87a4.771,4.771,0,0,0-1.027-.51,3.185,3.185,0,0,0-1.027-.165,1.808,1.808,0,0,0-1.066.278.94.94,0,0,0-.022,1.507,4.259,4.259,0,0,0,1.328.525,4.746,4.746,0,0,1,1.972.9,1.964,1.964,0,0,1,.653,1.56,2.023,2.023,0,0,1-.908,1.785,3.85,3.85,0,0,1-2.212.615,4.376,4.376,0,0,1-2.986-1.035l.736-.84a3.579,3.579,0,0,0,2.22.765,2.112,2.112,0,0,0,1.237-.322,1.02,1.02,0,0,0,.458-.878,1.168,1.168,0,0,0-.165-.653,1.356,1.356,0,0,0-.571-.434,7.947,7.947,0,0,0-1.184-.4,4.041,4.041,0,0,1-1.823-.885,1.9,1.9,0,0,1-.563-1.41,1.848,1.848,0,0,1,.368-1.117,2.378,2.378,0,0,1,1.02-.78,3.7,3.7,0,0,1,1.463-.278A4.4,4.4,0,0,1,455.372,94.2Zm.555-3.915.584.675-2.025,1.695h-.915l-2.04-1.695.6-.675,1.889,1.26Z"/><path class="cls-5" d="M464.717,98.576h-5.04a3.069,3.069,0,0,0,.66,1.92,1.913,1.913,0,0,0,1.469.615,3.211,3.211,0,0,0,1.05-.165,4.215,4.215,0,0,0,1-.525l.6.825a4.374,4.374,0,0,1-2.761.99,3.2,3.2,0,0,1-2.572-1.08,4.422,4.422,0,0,1-.922-2.97A5.632,5.632,0,0,1,458.6,96a3.429,3.429,0,0,1,1.14-1.492,2.89,2.89,0,0,1,1.747-.54,2.929,2.929,0,0,1,2.415,1.035,4.419,4.419,0,0,1,.84,2.865Q464.746,98.216,464.717,98.576Zm-1.335-1.11a2.929,2.929,0,0,0-.465-1.785,1.641,1.641,0,0,0-1.4-.615q-1.695,0-1.844,2.49h3.7Z"/><path class="cls-5" d="M476.334,94.616a2.478,2.478,0,0,1,.608,1.77v5.67h-1.381V96.581a1.753,1.753,0,0,0-.314-1.185,1.2,1.2,0,0,0-.93-.345,1.8,1.8,0,0,0-1.11.36,3.747,3.747,0,0,0-.9,1.035v5.61h-1.379V94.151h1.185l.12,1.17a3.113,3.113,0,0,1,1.042-.99,2.691,2.691,0,0,1,1.372-.36A2.209,2.209,0,0,1,476.334,94.616Z"/><path class="cls-5" d="M485.657,98.576h-5.04a3.075,3.075,0,0,0,.66,1.92,1.914,1.914,0,0,0,1.47.615,3.215,3.215,0,0,0,1.05-.165,4.234,4.234,0,0,0,1-.525l.6.825a4.374,4.374,0,0,1-2.761.99,3.2,3.2,0,0,1-2.572-1.08,4.427,4.427,0,0,1-.922-2.97,5.614,5.614,0,0,1,.4-2.183,3.419,3.419,0,0,1,1.139-1.492,2.89,2.89,0,0,1,1.747-.54,2.928,2.928,0,0,1,2.415,1.035,4.419,4.419,0,0,1,.84,2.865C485.686,98.1,485.677,98.336,485.657,98.576Zm-1.335-1.11a2.922,2.922,0,0,0-.465-1.785,1.638,1.638,0,0,0-1.4-.615q-1.695,0-1.845,2.49h3.7Z"/><rect class="cls-5" x="412.202" y="92.056" width="10" height="10"/><path class="cls-10" d="M267,98.629l1.17.27L264.7,112.294l-1.185-.285Z"/><path class="cls-10" d="M279.132,110.374a3.041,3.041,0,0,1-1.771.54,2.082,2.082,0,0,1-1.567-.578,2.3,2.3,0,0,1-.563-1.672v-4.77h-1.38v-1.065h1.38v-1.785l1.38-.165v1.95h1.875l-.149,1.065h-1.726v4.71a1.455,1.455,0,0,0,.218.893.87.87,0,0,0,.727.277,2.259,2.259,0,0,0,1.05-.315Z"/><path class="cls-10" d="M285.942,109.6a1.016,1.016,0,0,0,.5.352l-.315.96a2.1,2.1,0,0,1-.989-.345,1.574,1.574,0,0,1-.556-.84,2.652,2.652,0,0,1-2.355,1.185,2.526,2.526,0,0,1-1.845-.66,2.309,2.309,0,0,1-.675-1.725,2.268,2.268,0,0,1,.907-1.935,4.25,4.25,0,0,1,2.573-.675H284.4v-.585a1.538,1.538,0,0,0-.4-1.2,1.833,1.833,0,0,0-1.245-.36,6.964,6.964,0,0,0-2.13.42l-.345-1.005a7.956,7.956,0,0,1,2.73-.54,2.849,2.849,0,0,1,2.085.683,2.61,2.61,0,0,1,.69,1.942v3.615A1.243,1.243,0,0,0,285.942,109.6Zm-1.545-.953v-1.815h-1.035q-2.19,0-2.19,1.62a1.483,1.483,0,0,0,.345,1.065,1.349,1.349,0,0,0,1.02.36A2.06,2.06,0,0,0,284.4,108.649Z"/><path class="cls-10" d="M289.992,99.484v11.25h-1.38V99.649Zm4.545,3.345-2.909,3.5,3.239,4.41h-1.649l-3.136-4.32,2.91-3.585Z"/><path class="cls-10" d="M305.757,109.6a1.007,1.007,0,0,0,.5.352l-.316.96a2.1,2.1,0,0,1-.989-.345,1.574,1.574,0,0,1-.556-.84,2.65,2.65,0,0,1-2.354,1.185,2.528,2.528,0,0,1-1.846-.66,2.309,2.309,0,0,1-.675-1.725,2.266,2.266,0,0,1,.908-1.935,4.246,4.246,0,0,1,2.573-.675h1.215v-.585a1.534,1.534,0,0,0-.406-1.2,1.829,1.829,0,0,0-1.245-.36,6.964,6.964,0,0,0-2.13.42l-.344-1.005a7.946,7.946,0,0,1,2.729-.54,2.848,2.848,0,0,1,2.085.683,2.61,2.61,0,0,1,.691,1.942v3.615A1.235,1.235,0,0,0,305.757,109.6Zm-1.545-.953v-1.815h-1.035q-2.19,0-2.191,1.62a1.479,1.479,0,0,0,.346,1.065,1.345,1.345,0,0,0,1.019.36A2.063,2.063,0,0,0,304.212,108.649Z"/><path class="cls-10" d="M313.834,103.294a2.478,2.478,0,0,1,.608,1.77v5.67h-1.381v-5.475a1.753,1.753,0,0,0-.314-1.185,1.2,1.2,0,0,0-.93-.345,1.8,1.8,0,0,0-1.11.36,3.747,3.747,0,0,0-.9,1.035v5.61h-1.379v-7.905h1.185l.12,1.17a3.113,3.113,0,0,1,1.042-.99,2.691,2.691,0,0,1,1.372-.36A2.205,2.205,0,0,1,313.834,103.294Z"/><path class="cls-10" d="M318.6,99.3a.913.913,0,0,1,.271.675.886.886,0,0,1-.271.667.967.967,0,0,1-.7.263.948.948,0,0,1-.689-.263.889.889,0,0,1-.271-.667.917.917,0,0,1,.271-.675.934.934,0,0,1,.689-.27A.952.952,0,0,1,318.6,99.3Zm0,3.525v7.905h-1.379v-7.905Z"/><path class="cls-10" d="M329.412,110.374a3.038,3.038,0,0,1-1.771.54,2.082,2.082,0,0,1-1.567-.578,2.3,2.3,0,0,1-.563-1.672v-4.77h-1.379v-1.065h1.379v-1.785l1.38-.165v1.95h1.875l-.149,1.065h-1.726v4.71a1.462,1.462,0,0,0,.218.893.872.872,0,0,0,.728.277,2.259,2.259,0,0,0,1.049-.315Z"/><path class="cls-10" d="M336.221,109.6a1.014,1.014,0,0,0,.5.352l-.316.96a2.1,2.1,0,0,1-.989-.345,1.574,1.574,0,0,1-.556-.84,2.65,2.65,0,0,1-2.354,1.185,2.527,2.527,0,0,1-1.846-.66,2.309,2.309,0,0,1-.675-1.725,2.268,2.268,0,0,1,.907-1.935,4.251,4.251,0,0,1,2.574-.675h1.215v-.585a1.534,1.534,0,0,0-.406-1.2,1.829,1.829,0,0,0-1.245-.36,6.964,6.964,0,0,0-2.13.42l-.344-1.005a7.946,7.946,0,0,1,2.729-.54,2.848,2.848,0,0,1,2.085.683,2.61,2.61,0,0,1,.69,1.942v3.615A1.243,1.243,0,0,0,336.221,109.6Zm-1.544-.953v-1.815h-1.036q-2.19,0-2.19,1.62a1.479,1.479,0,0,0,.346,1.065,1.345,1.345,0,0,0,1.019.36A2.063,2.063,0,0,0,334.677,108.649Z"/><path class="cls-10" d="M340.271,99.484v11.25h-1.38V99.649Zm4.545,3.345-2.909,3.5,3.239,4.41H343.5l-3.136-4.32,2.91-3.585Z"/><path class="cls-10" d="M357.146,98.539a22.328,22.328,0,0,0-1.274,2.107,9.479,9.479,0,0,0-.773,2.108,12.865,12.865,0,0,0,0,5.46,9.452,9.452,0,0,0,.773,2.107,22.2,22.2,0,0,0,1.274,2.108l-.554.36q-.931-1.305-1.463-2.235a9.4,9.4,0,0,1-.877-2.175,12.284,12.284,0,0,1,0-5.79,9.4,9.4,0,0,1,.877-2.175q.532-.93,1.463-2.235Z"/><path class="cls-10" d="M363.334,101.329a2.548,2.548,0,0,1,.742,1.89,4.221,4.221,0,0,1-.405,1.83,8.909,8.909,0,0,1-1.268,1.875q-.863,1.02-2.782,3.045h4.724l-.12.765H358.6V110q2.055-2.19,2.949-3.248a9.022,9.022,0,0,0,1.259-1.83,3.807,3.807,0,0,0,.368-1.657,1.917,1.917,0,0,0-.518-1.41,1.839,1.839,0,0,0-1.372-.525,2.553,2.553,0,0,0-1.223.285,3.51,3.51,0,0,0-1.012.855l-.6-.45a3.951,3.951,0,0,1,1.3-1.08,3.52,3.52,0,0,1,1.582-.345A2.723,2.723,0,0,1,363.334,101.329Z"/><path class="cls-10" d="M371.606,101.906a7.529,7.529,0,0,1,.8,3.848,7.417,7.417,0,0,1-.8,3.832,2.734,2.734,0,0,1-4.671,0,9.688,9.688,0,0,1,0-7.687,2.746,2.746,0,0,1,4.679.007Zm-4.575,3.833q0,4.44,2.235,4.44a1.785,1.785,0,0,0,1.658-1.08,10.259,10.259,0,0,0,0-6.7,1.784,1.784,0,0,0-1.658-1.087Q367.031,101.314,367.031,105.739Z"/><path class="cls-10" d="M378.559,101.329a2.549,2.549,0,0,1,.743,1.89,4.208,4.208,0,0,1-.406,1.83,8.862,8.862,0,0,1-1.267,1.875q-.864,1.02-2.783,3.045h4.725l-.12.765h-5.625V110q2.055-2.19,2.948-3.248a8.991,8.991,0,0,0,1.26-1.83,3.807,3.807,0,0,0,.367-1.657,1.921,1.921,0,0,0-.517-1.41,1.84,1.84,0,0,0-1.373-.525,2.549,2.549,0,0,0-1.222.285,3.5,3.5,0,0,0-1.013.855l-.6-.45a3.958,3.958,0,0,1,1.3-1.08,3.523,3.523,0,0,1,1.582-.345A2.723,2.723,0,0,1,378.559,101.329Z"/><path class="cls-10" d="M384.326,100.759v9.975h-.87v-9.015l-2.46,1.53-.4-.645,2.985-1.845Z"/><path class="cls-10" d="M388.968,100.414a9.443,9.443,0,0,1,.877,2.175,12.319,12.319,0,0,1,0,5.79,9.443,9.443,0,0,1-.877,2.175q-.533.93-1.462,2.235l-.556-.36a22.448,22.448,0,0,0,1.275-2.108,9.4,9.4,0,0,0,.773-2.107,12.865,12.865,0,0,0,0-5.46,9.43,9.43,0,0,0-.773-2.108,22.575,22.575,0,0,0-1.275-2.107l.556-.36Q388.436,99.484,388.968,100.414Z"/><path class="cls-10" d="M266.185,85.938a2.476,2.476,0,0,1,.609,1.77v5.67h-1.381V87.9a1.755,1.755,0,0,0-.315-1.185,1.2,1.2,0,0,0-.929-.344,1.808,1.808,0,0,0-1.111.359,3.751,3.751,0,0,0-.9,1.036v5.609h-1.38v-7.9h1.186l.12,1.17a3.126,3.126,0,0,1,1.042-.991,2.7,2.7,0,0,1,1.372-.36A2.205,2.205,0,0,1,266.185,85.938Z"/><path class="cls-10" d="M275.509,89.9h-5.04a3.064,3.064,0,0,0,.66,1.92,1.91,1.91,0,0,0,1.469.616,3.238,3.238,0,0,0,1.05-.165,4.252,4.252,0,0,0,1-.525l.6.824a4.369,4.369,0,0,1-2.761.991,3.2,3.2,0,0,1-2.572-1.08A4.424,4.424,0,0,1,269,89.508a5.624,5.624,0,0,1,.4-2.182,3.426,3.426,0,0,1,1.14-1.493,2.9,2.9,0,0,1,1.747-.54,2.927,2.927,0,0,1,2.415,1.036,4.418,4.418,0,0,1,.84,2.864Q275.538,89.538,275.509,89.9Zm-1.335-1.109A2.932,2.932,0,0,0,273.709,87a1.641,1.641,0,0,0-1.4-.615q-1.695,0-1.844,2.49h3.7Z"/><path class="cls-10" d="M279.094,92.9a4.718,4.718,0,0,1-.271,1.755,2.6,2.6,0,0,1-.787,1.073,7.02,7.02,0,0,1-1.448.833l-.405-1.006a4.1,4.1,0,0,0,.9-.532,1.57,1.57,0,0,0,.472-.735,4.223,4.223,0,0,0,.158-1.3V85.474h1.381Zm.014-10.95a.918.918,0,0,1,.27.676.89.89,0,0,1-.27.667.968.968,0,0,1-.7.262.948.948,0,0,1-.69-.262.89.89,0,0,1-.27-.667.918.918,0,0,1,.27-.676.938.938,0,0,1,.69-.27A.957.957,0,0,1,279.108,81.948Z"/><path class="cls-10" d="M285.544,85.519a4.371,4.371,0,0,1,1.229.674l-.585.87a4.818,4.818,0,0,0-1.027-.51,3.185,3.185,0,0,0-1.027-.165,1.808,1.808,0,0,0-1.066.278.939.939,0,0,0-.022,1.507,4.234,4.234,0,0,0,1.328.525,4.723,4.723,0,0,1,1.971.9A1.961,1.961,0,0,1,287,91.158a2.022,2.022,0,0,1-.908,1.785,3.843,3.843,0,0,1-2.212.616,4.375,4.375,0,0,1-2.986-1.036l.736-.839a3.583,3.583,0,0,0,2.219.764,2.113,2.113,0,0,0,1.238-.322,1.02,1.02,0,0,0,.458-.877,1.168,1.168,0,0,0-.165-.653,1.349,1.349,0,0,0-.571-.435,7.947,7.947,0,0,0-1.184-.4,4.031,4.031,0,0,1-1.823-.885,1.894,1.894,0,0,1-.563-1.41,1.85,1.85,0,0,1,.368-1.117,2.378,2.378,0,0,1,1.02-.78,3.7,3.7,0,0,1,1.463-.278A4.4,4.4,0,0,1,285.544,85.519Z"/><path class="cls-10" d="M294.888,89.9h-5.04a3.07,3.07,0,0,0,.661,1.92,1.909,1.909,0,0,0,1.469.616,3.238,3.238,0,0,0,1.05-.165,4.271,4.271,0,0,0,1-.525l.6.824a4.369,4.369,0,0,1-2.761.991,3.2,3.2,0,0,1-2.572-1.08,4.424,4.424,0,0,1-.922-2.971,5.624,5.624,0,0,1,.4-2.182,3.426,3.426,0,0,1,1.14-1.493,2.9,2.9,0,0,1,1.747-.54,2.927,2.927,0,0,1,2.415,1.036,4.424,4.424,0,0,1,.84,2.864Q294.918,89.538,294.888,89.9Zm-1.335-1.109A2.932,2.932,0,0,0,293.089,87a1.641,1.641,0,0,0-1.4-.615q-1.695,0-1.845,2.49h3.7Z"/><path class="cls-10" d="M306.618,85.946a2.541,2.541,0,0,1,.585,1.762v5.67h-1.38V87.9q0-1.53-1.11-1.529a1.5,1.5,0,0,0-.99.337,4.726,4.726,0,0,0-.87,1.058v5.609h-1.38V87.9q0-1.53-1.11-1.529a1.5,1.5,0,0,0-1,.344,4.737,4.737,0,0,0-.855,1.051v5.609h-1.38v-7.9h1.185l.12,1.154a2.648,2.648,0,0,1,2.28-1.335,1.987,1.987,0,0,1,1.995,1.425,3.711,3.711,0,0,1,1.027-1.057,2.374,2.374,0,0,1,1.328-.368A1.993,1.993,0,0,1,306.618,85.946Z"/><path class="cls-10" d="M317.553,85.519a4.376,4.376,0,0,1,1.23.674l-.585.87a4.818,4.818,0,0,0-1.027-.51,3.191,3.191,0,0,0-1.028-.165,1.807,1.807,0,0,0-1.065.278.94.94,0,0,0-.023,1.507,4.253,4.253,0,0,0,1.329.525,4.729,4.729,0,0,1,1.971.9,1.961,1.961,0,0,1,.654,1.559,2.02,2.02,0,0,1-.909,1.785,3.838,3.838,0,0,1-2.212.616,4.374,4.374,0,0,1-2.985-1.036l.735-.839a3.586,3.586,0,0,0,2.22.764,2.108,2.108,0,0,0,1.237-.322,1.018,1.018,0,0,0,.458-.877,1.16,1.16,0,0,0-.165-.653,1.339,1.339,0,0,0-.57-.435,7.947,7.947,0,0,0-1.184-.4,4.035,4.035,0,0,1-1.824-.885,1.893,1.893,0,0,1-.562-1.41,1.85,1.85,0,0,1,.368-1.117,2.378,2.378,0,0,1,1.02-.78,3.7,3.7,0,0,1,1.462-.278A4.4,4.4,0,0,1,317.553,85.519Z"/><path class="cls-10" d="M322.338,81.948a.918.918,0,0,1,.27.676.89.89,0,0,1-.27.667.968.968,0,0,1-.705.262.948.948,0,0,1-.69-.262.89.89,0,0,1-.27-.667.918.918,0,0,1,.27-.676.938.938,0,0,1,.69-.27A.957.957,0,0,1,322.338,81.948Zm0,3.526v7.9h-1.38v-7.9Z"/><path class="cls-10" d="M330.513,92.9a4.72,4.72,0,0,1-.27,1.755,2.6,2.6,0,0,1-.787,1.073,7.02,7.02,0,0,1-1.448.833l-.4-1.006a4.1,4.1,0,0,0,.9-.532,1.57,1.57,0,0,0,.472-.735,4.223,4.223,0,0,0,.158-1.3V85.474h1.38Zm.015-10.95a.918.918,0,0,1,.27.676.89.89,0,0,1-.27.667.968.968,0,0,1-.705.262.948.948,0,0,1-.69-.262.89.89,0,0,1-.27-.667.918.918,0,0,1,.27-.676.938.938,0,0,1,.69-.27A.957.957,0,0,1,330.528,81.948Z"/><path class="cls-10" d="M334.743,81.948a.914.914,0,0,1,.27.676.886.886,0,0,1-.27.667.968.968,0,0,1-.7.262.95.95,0,0,1-.69-.262.894.894,0,0,1-.27-.667.922.922,0,0,1,.27-.676.94.94,0,0,1,.69-.27A.957.957,0,0,1,334.743,81.948Zm0,3.526v7.9h-1.38v-7.9Z"/><path class="cls-10" d="M341.193,85.519a4.376,4.376,0,0,1,1.23.674l-.585.87a4.824,4.824,0,0,0-1.028-.51,3.185,3.185,0,0,0-1.027-.165,1.8,1.8,0,0,0-1.065.278.94.94,0,0,0-.023,1.507,4.245,4.245,0,0,0,1.328.525,4.734,4.734,0,0,1,1.972.9,1.964,1.964,0,0,1,.653,1.559,2.022,2.022,0,0,1-.908,1.785,3.84,3.84,0,0,1-2.212.616,4.374,4.374,0,0,1-2.985-1.036l.735-.839a3.584,3.584,0,0,0,2.22.764,2.112,2.112,0,0,0,1.237-.322,1.018,1.018,0,0,0,.458-.877,1.168,1.168,0,0,0-.165-.653,1.346,1.346,0,0,0-.57-.435,7.967,7.967,0,0,0-1.185-.4,4.031,4.031,0,0,1-1.823-.885,1.894,1.894,0,0,1-.563-1.41,1.851,1.851,0,0,1,.369-1.117,2.381,2.381,0,0,1,1.019-.78,3.708,3.708,0,0,1,1.463-.278A4.4,4.4,0,0,1,341.193,85.519Z"/><path class="cls-10" d="M348.588,93.019a3.048,3.048,0,0,1-1.771.54,2.086,2.086,0,0,1-1.567-.578,2.3,2.3,0,0,1-.563-1.672v-4.77h-1.38V85.474h1.38V83.688l1.38-.165v1.951h1.875l-.149,1.065h-1.726v4.71a1.452,1.452,0,0,0,.218.892.87.87,0,0,0,.727.277,2.269,2.269,0,0,0,1.05-.314Z"/><path class="cls-10" d="M356.612,81.184a22.328,22.328,0,0,0-1.274,2.107,9.421,9.421,0,0,0-.773,2.107,12.865,12.865,0,0,0,0,5.46,9.43,9.43,0,0,0,.773,2.108,22.328,22.328,0,0,0,1.274,2.107l-.555.361q-.93-1.306-1.463-2.236a9.406,9.406,0,0,1-.876-2.175,12.284,12.284,0,0,1,0-5.79,9.434,9.434,0,0,1,.876-2.174q.534-.931,1.463-2.236Z"/><path class="cls-10" d="M362.8,83.974a2.544,2.544,0,0,1,.742,1.889,4.2,4.2,0,0,1-.406,1.83,8.837,8.837,0,0,1-1.267,1.875q-.862,1.021-2.782,3.045h4.724l-.12.765h-5.625v-.734q2.055-2.19,2.948-3.248a9.019,9.019,0,0,0,1.26-1.83,3.808,3.808,0,0,0,.367-1.658,1.918,1.918,0,0,0-.517-1.409,1.836,1.836,0,0,0-1.372-.525,2.552,2.552,0,0,0-1.223.284,3.542,3.542,0,0,0-1.013.855l-.6-.449a3.943,3.943,0,0,1,1.3-1.081,3.53,3.53,0,0,1,1.582-.345A2.722,2.722,0,0,1,362.8,83.974Z"/><path class="cls-10" d="M371.072,84.551a7.522,7.522,0,0,1,.8,3.847,7.429,7.429,0,0,1-.8,3.833,2.736,2.736,0,0,1-4.672,0,7.524,7.524,0,0,1-.8-3.848,7.484,7.484,0,0,1,.8-3.84,2.746,2.746,0,0,1,4.68.008ZM366.5,88.383q0,4.442,2.235,4.44a1.784,1.784,0,0,0,1.657-1.079,7.568,7.568,0,0,0,.563-3.346,7.615,7.615,0,0,0-.563-3.352,1.784,1.784,0,0,0-1.657-1.088Q366.5,83.958,366.5,88.383Z"/><path class="cls-10" d="M376.817,83.4v9.975h-.87V84.363l-2.46,1.531-.405-.645,2.985-1.846Z"/><path class="cls-10" d="M384.707,84.124h-4.05v3.4a3.445,3.445,0,0,1,1.71-.465,2.632,2.632,0,0,1,2.047.833,3.248,3.248,0,0,1,.758,2.272,3.766,3.766,0,0,1-.4,1.748,2.9,2.9,0,0,1-1.125,1.2,3.269,3.269,0,0,1-1.687.427,3.763,3.763,0,0,1-2.821-1.2l.54-.525a3.177,3.177,0,0,0,1.021.75,3.056,3.056,0,0,0,1.26.241,2.1,2.1,0,0,0,1.679-.713,2.868,2.868,0,0,0,.616-1.943,2.519,2.519,0,0,0-.563-1.792,2,2,0,0,0-1.522-.592,2.9,2.9,0,0,0-.848.112,4.143,4.143,0,0,0-.817.368h-.691V83.4h5.026Z"/><path class="cls-10" d="M388.764,83.059a9.39,9.39,0,0,1,.878,2.174,12.319,12.319,0,0,1,0,5.79,9.363,9.363,0,0,1-.878,2.175q-.531.93-1.461,2.236l-.556-.361a22.575,22.575,0,0,0,1.275-2.107,9.479,9.479,0,0,0,.773-2.108,12.865,12.865,0,0,0,0-5.46,9.47,9.47,0,0,0-.773-2.107,22.575,22.575,0,0,0-1.275-2.107l.556-.361Q388.233,82.128,388.764,83.059Z"/><rect class="cls-4" x="241.353" y="92.056" width="10" height="10"/><path class="cls-3" d="M160.167,94.2a4.374,4.374,0,0,1,1.229.675l-.585.87a4.771,4.771,0,0,0-1.027-.51,3.185,3.185,0,0,0-1.027-.165,1.808,1.808,0,0,0-1.066.278.94.94,0,0,0-.022,1.507,4.259,4.259,0,0,0,1.328.525,4.746,4.746,0,0,1,1.972.9,1.964,1.964,0,0,1,.653,1.56,2.023,2.023,0,0,1-.908,1.785,3.85,3.85,0,0,1-2.212.615,4.376,4.376,0,0,1-2.986-1.035l.736-.84a3.578,3.578,0,0,0,2.219.765,2.113,2.113,0,0,0,1.238-.322,1.022,1.022,0,0,0,.458-.878,1.168,1.168,0,0,0-.165-.653,1.356,1.356,0,0,0-.571-.434,7.947,7.947,0,0,0-1.184-.4,4.041,4.041,0,0,1-1.823-.885,1.9,1.9,0,0,1-.563-1.41,1.848,1.848,0,0,1,.368-1.117,2.378,2.378,0,0,1,1.02-.78,3.7,3.7,0,0,1,1.463-.278A4.4,4.4,0,0,1,160.167,94.2Z"/><path class="cls-3" d="M169.422,95.051a5.563,5.563,0,0,1,.705,3.045,5.072,5.072,0,0,1-.811,3,2.649,2.649,0,0,1-2.3,1.14,2.549,2.549,0,0,1-2.07-.9v3.75l-1.38.165v-11.1h1.186l.1,1.065a3.036,3.036,0,0,1,1.05-.923,2.755,2.755,0,0,1,1.29-.322A2.462,2.462,0,0,1,169.422,95.051Zm-.781,3.045q0-3.03-1.785-3.03a1.785,1.785,0,0,0-1.065.345,3.39,3.39,0,0,0-.84.885v3.855a2.083,2.083,0,0,0,.75.713,2.023,2.023,0,0,0,.99.247Q168.641,101.111,168.641,98.1Z"/><path class="cls-3" d="M174.356,90.041l.615,1.155-3.179,1.29-.42-.735Zm-.5,4.11v7.905h-1.38V94.151Z"/><path class="cls-3" d="M180.311,94.2a4.379,4.379,0,0,1,1.23.675l-.585.87a4.777,4.777,0,0,0-1.028-.51,3.18,3.18,0,0,0-1.027-.165,1.8,1.8,0,0,0-1.065.278.94.94,0,0,0-.023,1.507,4.27,4.27,0,0,0,1.328.525,4.746,4.746,0,0,1,1.972.9,1.961,1.961,0,0,1,.653,1.56,2.021,2.021,0,0,1-.908,1.785,3.848,3.848,0,0,1-2.212.615,4.373,4.373,0,0,1-2.985-1.035l.735-.84a3.579,3.579,0,0,0,2.22.765,2.108,2.108,0,0,0,1.237-.322,1.02,1.02,0,0,0,.458-.878,1.16,1.16,0,0,0-.165-.653,1.352,1.352,0,0,0-.57-.434,7.967,7.967,0,0,0-1.185-.4,4.046,4.046,0,0,1-1.823-.885,1.9,1.9,0,0,1-.562-1.41,1.848,1.848,0,0,1,.368-1.117,2.381,2.381,0,0,1,1.019-.78,3.708,3.708,0,0,1,1.463-.278A4.4,4.4,0,0,1,180.311,94.2Zm.555-3.915.585.675-2.025,1.695h-.915l-2.041-1.695.6-.675,1.89,1.26Z"/><path class="cls-3" d="M189.656,98.576h-5.04a3.075,3.075,0,0,0,.66,1.92,1.914,1.914,0,0,0,1.47.615,3.215,3.215,0,0,0,1.05-.165,4.234,4.234,0,0,0,1-.525l.6.825a4.374,4.374,0,0,1-2.761.99,3.2,3.2,0,0,1-2.572-1.08,4.427,4.427,0,0,1-.922-2.97,5.614,5.614,0,0,1,.4-2.183,3.419,3.419,0,0,1,1.139-1.492,2.892,2.892,0,0,1,1.747-.54,2.928,2.928,0,0,1,2.415,1.035,4.419,4.419,0,0,1,.84,2.865C189.685,98.1,189.676,98.336,189.656,98.576Zm-1.335-1.11a2.922,2.922,0,0,0-.465-1.785,1.638,1.638,0,0,0-1.395-.615q-1.7,0-1.845,2.49h3.7Z"/><path class="cls-3" d="M201.356,100.924a1.01,1.01,0,0,0,.5.352l-.315.96a2.1,2.1,0,0,1-.989-.345,1.574,1.574,0,0,1-.556-.84,2.65,2.65,0,0,1-2.355,1.185,2.526,2.526,0,0,1-1.845-.66,2.307,2.307,0,0,1-.675-1.725,2.268,2.268,0,0,1,.907-1.935,4.25,4.25,0,0,1,2.573-.675h1.215v-.585a1.534,1.534,0,0,0-.405-1.2,1.833,1.833,0,0,0-1.245-.36,6.964,6.964,0,0,0-2.13.42l-.345-1.005a7.956,7.956,0,0,1,2.73-.54,2.853,2.853,0,0,1,2.085.683,2.61,2.61,0,0,1,.69,1.942v3.615A1.241,1.241,0,0,0,201.356,100.924Zm-1.545-.953V98.156h-1.035q-2.19,0-2.19,1.62a1.483,1.483,0,0,0,.345,1.065,1.349,1.349,0,0,0,1.02.36A2.06,2.06,0,0,0,199.811,99.971Z"/><path class="cls-3" d="M209.433,94.616a2.474,2.474,0,0,1,.609,1.77v5.67h-1.381V96.581a1.753,1.753,0,0,0-.315-1.185,1.2,1.2,0,0,0-.929-.345,1.8,1.8,0,0,0-1.111.36,3.745,3.745,0,0,0-.9,1.035v5.61h-1.38V94.151h1.186l.12,1.17a3.113,3.113,0,0,1,1.042-.99,2.691,2.691,0,0,1,1.372-.36A2.205,2.205,0,0,1,209.433,94.616Z"/><path class="cls-3" d="M218.374,95.081A4.573,4.573,0,0,1,219.3,98.1a5.274,5.274,0,0,1-.42,2.168,3.3,3.3,0,0,1-1.216,1.455,3.393,3.393,0,0,1-1.89.517,3.2,3.2,0,0,1-2.594-1.11,4.543,4.543,0,0,1-.93-3.015,5.24,5.24,0,0,1,.42-2.167,3.275,3.275,0,0,1,1.215-1.455,3.412,3.412,0,0,1,1.9-.518A3.179,3.179,0,0,1,218.374,95.081Zm-4.643,3.03q0,3.015,2.04,3.015t2.04-3.03q0-3.015-2.025-3.015Q213.731,95.081,213.731,98.111Z"/><rect class="cls-3" x="137.141" y="92.056" width="10" height="10"/></svg>